<svg width="21" height="20" viewBox="0 0 21 20" fill="none" xmlns="http://www.w3.org/2000/svg">
<path d="M7.95982 16.8676C8.66073 17.7585 9.76182 18.3327 11 18.3327C12.2382 18.3327 13.3393 17.7585 14.0402 16.8676C12.022 17.141 9.97798 17.141 7.95982 16.8676Z" fill="#A1A1A1"/>
<path d="M16.6243 7.49935V8.0861C16.6243 8.79026 16.8252 9.47866 17.2018 10.0646L18.1247 11.5003C18.9676 12.8117 18.3241 14.5943 16.858 15.009C13.0227 16.0939 8.97728 16.0939 5.14197 15.009C3.67587 14.5943 3.03235 12.8117 3.8753 11.5003L4.79816 10.0646C5.17476 9.47866 5.37573 8.79026 5.37573 8.0861V7.49935C5.37573 4.27769 7.8938 1.66602 11 1.66602C14.1062 1.66602 16.6243 4.27769 16.6243 7.49935Z" fill="#A1A1A1"/>
<path d="M1.07812 17.082L19.8708 2.15439" stroke="#A1A1A1" stroke-linecap="round"/>
<path d="M3.66167 15.6495C3.44544 15.8212 3.40938 16.1358 3.58113 16.352C3.75289 16.5682 4.06741 16.6043 4.28364 16.4325L3.66167 15.6495ZM4.28364 16.4325L17.4466 5.97725L16.8246 5.19421L3.66167 15.6495L4.28364 16.4325Z" fill="#CED8D5"/>
</svg>
