<svg width="581" height="511" viewBox="0 0 581 511" fill="none" xmlns="http://www.w3.org/2000/svg">
<rect width="581" height="511" fill="#DDDDDD"/>
<path d="M455.004 227.897C458.319 227.897 460.999 225.254 460.999 221.994C460.999 218.734 458.319 216.091 455.004 216.091C451.694 216.091 449.01 218.734 449.01 221.994C449.01 225.254 451.694 227.897 455.004 227.897Z" fill="#0B3B2D"/>
<path d="M139.409 250.339C136.742 250.339 134.285 249.928 132.036 249.106C129.819 248.252 127.875 247.05 126.205 245.5C124.566 243.951 123.281 242.132 122.349 240.044C121.45 237.957 121 235.664 121 233.165C121 230.666 121.45 228.373 122.349 226.286C123.281 224.198 124.582 222.38 126.253 220.83C127.923 219.28 129.883 218.094 132.132 217.272C134.381 216.418 136.855 215.991 139.553 215.991C142.541 215.991 145.224 216.481 147.601 217.461C150.011 218.442 152.035 219.865 153.673 221.731L148.662 226.286C147.441 225.021 146.107 224.088 144.662 223.487C143.216 222.854 141.642 222.538 139.939 222.538C138.301 222.538 136.807 222.791 135.457 223.297C134.108 223.803 132.935 224.531 131.939 225.479C130.976 226.428 130.221 227.551 129.674 228.848C129.16 230.145 128.903 231.584 128.903 233.165C128.903 234.715 129.16 236.138 129.674 237.435C130.221 238.732 130.976 239.87 131.939 240.851C132.935 241.8 134.092 242.527 135.409 243.033C136.758 243.539 138.236 243.792 139.843 243.792C141.385 243.792 142.879 243.555 144.324 243.081C145.802 242.575 147.232 241.736 148.613 240.566L153.047 246.117C151.216 247.477 149.079 248.521 146.638 249.248C144.228 249.976 141.818 250.339 139.409 250.339ZM145.915 245.121V232.643H153.047V246.117L145.915 245.121ZM157.841 249.77V214.567H165.359V249.77H157.841ZM182.745 250.15C179.982 250.15 177.524 249.58 175.372 248.442C173.252 247.303 171.565 245.753 170.312 243.792C169.091 241.8 168.481 239.538 168.481 237.008C168.481 234.446 169.091 232.185 170.312 230.224C171.565 228.231 173.252 226.681 175.372 225.574C177.524 224.436 179.982 223.866 182.745 223.866C185.476 223.866 187.918 224.436 190.07 225.574C192.223 226.681 193.909 228.215 195.13 230.176C196.351 232.137 196.961 234.414 196.961 237.008C196.961 239.538 196.351 241.8 195.13 243.792C193.909 245.753 192.223 247.303 190.07 248.442C187.918 249.58 185.476 250.15 182.745 250.15ZM182.745 244.077C183.998 244.077 185.123 243.792 186.119 243.223C187.114 242.654 187.902 241.847 188.48 240.803C189.058 239.728 189.347 238.463 189.347 237.008C189.347 235.521 189.058 234.256 188.48 233.213C187.902 232.169 187.114 231.362 186.119 230.793C185.123 230.224 183.998 229.939 182.745 229.939C181.492 229.939 180.368 230.224 179.372 230.793C178.376 231.362 177.573 232.169 176.962 233.213C176.384 234.256 176.095 235.521 176.095 237.008C176.095 238.463 176.384 239.728 176.962 240.803C177.573 241.847 178.376 242.654 179.372 243.223C180.368 243.792 181.492 244.077 182.745 244.077ZM215.384 250.15C213.102 250.15 211.143 249.675 209.505 248.726C207.866 247.778 206.613 246.338 205.746 244.409C204.878 242.448 204.444 239.981 204.444 237.008C204.444 234.003 204.893 231.536 205.793 229.607C206.724 227.678 208.01 226.238 209.649 225.289C211.287 224.341 213.199 223.866 215.384 223.866C217.826 223.866 220.009 224.404 221.937 225.479C223.897 226.555 225.439 228.073 226.564 230.034C227.72 231.995 228.299 234.32 228.299 237.008C228.299 239.665 227.72 241.974 226.564 243.935C225.439 245.896 223.897 247.43 221.937 248.537C220.009 249.612 217.826 250.15 215.384 250.15ZM200.058 249.77V214.567H207.577V229.417L207.095 236.961L207.239 244.551V249.77H200.058ZM214.083 244.077C215.335 244.077 216.443 243.792 217.408 243.223C218.404 242.654 219.191 241.847 219.768 240.803C220.38 239.728 220.685 238.463 220.685 237.008C220.685 235.521 220.38 234.256 219.768 233.213C219.191 232.169 218.404 231.362 217.408 230.793C216.443 230.224 215.335 229.939 214.083 229.939C212.83 229.939 211.705 230.224 210.708 230.793C209.713 231.362 208.926 232.169 208.348 233.213C207.769 234.256 207.48 235.521 207.48 237.008C207.48 238.463 207.769 239.728 208.348 240.803C208.926 241.847 209.713 242.654 210.708 243.223C211.705 243.792 212.83 244.077 214.083 244.077ZM246.882 249.77V244.789L246.4 243.697V234.778C246.4 233.197 245.904 231.963 244.907 231.078C243.943 230.192 242.449 229.749 240.426 229.749C239.044 229.749 237.678 229.971 236.329 230.413C235.012 230.825 233.888 231.394 232.957 232.121L230.258 226.95C231.671 225.97 233.373 225.211 235.365 224.673C237.357 224.135 239.382 223.866 241.438 223.866C245.389 223.866 248.458 224.784 250.642 226.618C252.827 228.452 253.919 231.315 253.919 235.205V249.77H246.882ZM238.98 250.15C236.955 250.15 235.221 249.818 233.775 249.153C232.33 248.458 231.222 247.524 230.45 246.354C229.679 245.184 229.294 243.871 229.294 242.417C229.294 240.898 229.663 239.57 230.402 238.431C231.173 237.293 232.378 236.407 234.016 235.774C235.655 235.11 237.791 234.778 240.426 234.778H247.317V239.096H241.244C239.477 239.096 238.257 239.38 237.582 239.949C236.939 240.519 236.619 241.23 236.619 242.084C236.619 243.033 236.988 243.792 237.727 244.362C238.498 244.899 239.542 245.168 240.859 245.168C242.112 245.168 243.236 244.884 244.233 244.314C245.228 243.713 245.951 242.844 246.4 241.705L247.558 245.121C247.012 246.765 246.015 248.015 244.571 248.869C243.125 249.723 241.261 250.15 238.98 250.15ZM258.795 249.77V214.567H266.312V249.77H258.795ZM271.893 249.77V216.56H278.349L298.253 240.471H295.12V216.56H302.83V249.77H296.422L276.471 225.859H279.604V249.77H271.893ZM320.691 250.15C317.927 250.15 315.469 249.58 313.318 248.442C311.199 247.303 309.511 245.753 308.259 243.792C307.036 241.8 306.428 239.538 306.428 237.008C306.428 234.446 307.036 232.185 308.259 230.224C309.511 228.231 311.199 226.681 313.318 225.574C315.469 224.436 317.927 223.866 320.691 223.866C323.421 223.866 325.865 224.436 328.017 225.574C330.168 226.681 331.855 228.215 333.076 230.176C334.297 232.137 334.907 234.414 334.907 237.008C334.907 239.538 334.297 241.8 333.076 243.792C331.855 245.753 330.168 247.303 328.017 248.442C325.865 249.58 323.421 250.15 320.691 250.15ZM320.691 244.077C321.944 244.077 323.07 243.792 324.065 243.223C325.059 242.654 325.847 241.847 326.426 240.803C327.005 239.728 327.294 238.463 327.294 237.008C327.294 235.521 327.005 234.256 326.426 233.213C325.847 232.169 325.059 231.362 324.065 230.793C323.07 230.224 321.944 229.939 320.691 229.939C319.439 229.939 318.312 230.224 317.317 230.793C316.324 231.362 315.519 232.169 314.909 233.213C314.33 234.256 314.041 235.521 314.041 237.008C314.041 238.463 314.33 239.728 314.909 240.803C315.519 241.847 316.324 242.654 317.317 243.223C318.312 243.792 319.439 244.077 320.691 244.077ZM371.209 223.866C373.265 223.866 375.078 224.278 376.656 225.1C378.259 225.89 379.512 227.124 380.413 228.8C381.343 230.445 381.812 232.564 381.812 235.158V249.77H374.293V236.296C374.293 234.24 373.86 232.722 372.993 231.742C372.126 230.761 370.903 230.271 369.33 230.271C368.235 230.271 367.258 230.524 366.391 231.03C365.523 231.505 364.848 232.232 364.366 233.213C363.884 234.193 363.643 235.442 363.643 236.961V249.77H356.126V236.296C356.126 234.24 355.691 232.722 354.824 231.742C353.988 230.761 352.783 230.271 351.211 230.271C350.115 230.271 349.138 230.524 348.271 231.03C347.404 231.505 346.728 232.232 346.246 233.213C345.764 234.193 345.523 235.442 345.523 236.961V249.77H338.006V224.246H345.187V231.22L343.838 229.18C344.736 227.44 346.005 226.128 347.645 225.242C349.314 224.325 351.211 223.866 353.33 223.866C355.706 223.866 357.778 224.467 359.547 225.669C361.344 226.839 362.535 228.642 363.113 231.078L360.462 230.366C361.33 228.373 362.712 226.792 364.607 225.622C366.535 224.451 368.735 223.866 371.209 223.866ZM402.525 249.77V244.789L402.043 243.697V234.778C402.043 233.197 401.545 231.963 400.55 231.078C399.586 230.192 398.092 229.749 396.067 229.749C394.684 229.749 393.321 229.971 391.972 230.413C390.654 230.825 389.527 231.394 388.598 232.121L385.899 226.95C387.311 225.97 389.014 225.211 391.008 224.673C392.997 224.135 395.021 223.866 397.079 223.866C401.032 223.866 404.098 224.784 406.283 226.618C408.467 228.452 409.56 231.315 409.56 235.205V249.77H402.525ZM394.621 250.15C392.598 250.15 390.864 249.818 389.418 249.153C387.971 248.458 386.863 247.524 386.093 246.354C385.32 245.184 384.935 243.871 384.935 242.417C384.935 240.898 385.304 239.57 386.043 238.431C386.814 237.293 388.019 236.407 389.659 235.774C391.296 235.11 393.431 234.778 396.067 234.778H402.958V239.096H396.887C395.118 239.096 393.898 239.38 393.224 239.949C392.58 240.519 392.26 241.23 392.26 242.084C392.26 243.033 392.629 243.792 393.369 244.362C394.139 244.899 395.184 245.168 396.502 245.168C397.754 245.168 398.876 244.884 399.874 244.314C400.869 243.713 401.592 242.844 402.043 241.705L403.199 245.121C402.653 246.765 401.658 248.015 400.212 248.869C398.766 249.723 396.9 250.15 394.621 250.15ZM425.755 250.15C423.314 250.15 421.116 249.612 419.153 248.537C417.196 247.43 415.636 245.896 414.479 243.935C413.356 241.974 412.792 239.665 412.792 237.008C412.792 234.32 413.356 231.995 414.479 230.034C415.636 228.073 417.196 226.555 419.153 225.479C421.116 224.404 423.314 223.866 425.755 223.866C427.941 223.866 429.853 224.341 431.49 225.289C433.128 226.238 434.399 227.678 435.297 229.607C436.199 231.536 436.647 234.003 436.647 237.008C436.647 239.981 436.214 242.448 435.345 244.409C434.478 246.338 433.225 247.778 431.587 248.726C429.982 249.675 428.038 250.15 425.755 250.15ZM427.057 244.077C428.279 244.077 429.387 243.792 430.382 243.223C431.381 242.654 432.166 241.847 432.743 240.803C433.356 239.728 433.66 238.463 433.66 237.008C433.66 235.521 433.356 234.256 432.743 233.213C432.166 232.169 431.381 231.362 430.382 230.793C429.387 230.224 428.279 229.939 427.057 229.939C425.805 229.939 424.682 230.224 423.683 230.793C422.688 231.362 421.886 232.169 421.275 233.213C420.696 234.256 420.407 235.521 420.407 237.008C420.407 238.463 420.696 239.728 421.275 240.803C421.886 241.847 422.688 242.654 423.683 243.223C424.682 243.792 425.805 244.077 427.057 244.077ZM433.851 249.77V244.551L433.996 236.961L433.515 229.417V214.567H441.032V249.77H433.851Z" fill="#0B3B2D"/>
<path fill-rule="evenodd" clip-rule="evenodd" d="M291.291 58C326.433 58 354.921 86.1092 354.921 120.784C354.921 155.458 326.433 183.567 291.291 183.567C256.15 183.567 227.662 155.458 227.662 120.784C227.662 86.1092 256.15 58 291.291 58ZM288.991 62.6981C281.733 63.7061 274.821 69.4614 269.455 79.0871C267.899 81.8792 266.494 84.9638 265.271 88.2946C272.566 86.4853 280.581 85.4189 288.991 85.254V62.6981ZM259.893 89.8025C261.415 85.0898 263.276 80.754 265.425 76.8999C268.085 72.1281 271.241 68.0076 274.798 64.8427C255.458 70.3848 240.214 85.4263 234.597 104.509C237.804 101 241.981 97.8852 246.817 95.2608C250.723 93.1409 255.117 91.3038 259.893 89.8025ZM258.364 95.1084C256.531 102.307 255.45 110.215 255.283 118.514H232.423C233.445 111.352 239.278 104.532 249.033 99.2377C251.863 97.7018 254.989 96.3161 258.364 95.1084ZM259.884 118.514C260.074 109.457 261.395 100.955 263.581 93.442C271.195 91.2848 279.813 89.9808 288.991 89.7933V99.5968C285.567 108.246 278.583 115.137 269.817 118.514H259.884ZM255.283 123.053H232.423C233.445 130.216 239.278 137.035 249.033 142.33C251.863 143.865 254.989 145.251 258.364 146.459C256.531 139.26 255.45 131.352 255.283 123.053ZM263.581 148.125C261.395 140.613 260.074 132.11 259.884 123.053H269.817C278.583 126.43 285.568 133.321 288.991 141.971V151.774C279.813 151.587 271.195 150.282 263.581 148.125ZM259.893 151.765C255.117 150.263 250.723 148.426 246.817 146.307C241.981 143.682 237.804 140.567 234.597 137.058C240.214 156.141 255.458 171.182 274.798 176.724C271.241 173.559 268.085 169.439 265.425 164.667C263.276 160.813 261.415 156.478 259.893 151.765ZM288.991 178.869C281.733 177.861 274.821 172.106 269.455 162.48C267.899 159.688 266.494 156.603 265.271 153.273C272.566 155.082 280.581 156.148 288.991 156.313V178.869ZM307.785 176.724C311.341 173.559 314.499 169.439 317.158 164.667C319.306 160.813 321.168 156.478 322.69 151.765C327.466 150.263 331.86 148.426 335.766 146.307C340.602 143.682 344.779 140.567 347.986 137.058C342.369 156.141 327.125 171.182 307.785 176.724ZM317.312 153.273C316.088 156.603 314.684 159.688 313.128 162.48C307.763 172.106 300.85 177.861 293.591 178.869V156.313C302.002 156.148 310.017 155.082 317.312 153.273ZM324.218 146.459C327.593 145.251 330.72 143.865 333.55 142.33C343.305 137.035 349.138 130.216 350.159 123.053H327.3C327.132 131.352 326.052 139.26 324.218 146.459ZM322.699 123.053C322.509 132.11 321.187 140.613 319.002 148.125C311.388 150.282 302.77 151.587 293.591 151.774V141.978C297.014 133.325 304 126.431 312.769 123.053H322.699ZM327.3 118.514H350.159C349.138 111.352 343.305 104.532 333.55 99.2377C330.72 97.7018 327.593 96.3161 324.218 95.1084C326.052 102.307 327.132 110.215 327.3 118.514ZM319.002 93.442C321.187 100.955 322.509 109.457 322.699 118.514H312.769C304 115.136 297.014 108.242 293.591 99.5895V89.7933C302.77 89.9808 311.388 91.2848 319.002 93.442ZM322.69 89.8025C327.466 91.3038 331.86 93.1409 335.766 95.2608C340.602 97.8852 344.779 101 347.986 104.509C342.369 85.4263 327.125 70.3848 307.785 64.8427C311.341 68.0076 314.499 72.1281 317.158 76.8999C319.306 80.754 321.168 85.0898 322.69 89.8025ZM293.591 62.6981C300.85 63.7061 307.763 69.4614 313.128 79.0871C314.684 81.8792 316.088 84.9638 317.312 88.2946C310.017 86.4853 302.002 85.4189 293.591 85.254V62.6981Z" fill="#0B3B2D"/>
</svg>
