<svg width="581" height="511" viewBox="0 0 581 511" fill="none" xmlns="http://www.w3.org/2000/svg">
<rect width="581" height="511" fill="#DDDDDD"/>
<path d="M455.004 328.556C458.319 328.556 460.999 325.913 460.999 322.653C460.999 319.393 458.319 316.75 455.004 316.75C451.694 316.75 449.01 319.393 449.01 322.653C449.01 325.913 451.694 328.556 455.004 328.556Z" fill="#0B3B2D"/>
<path d="M139.409 350.999C136.742 350.999 134.285 350.588 132.036 349.765C129.819 348.911 127.875 347.709 126.205 346.16C124.566 344.61 123.281 342.791 122.349 340.703C121.45 338.616 121 336.323 121 333.824C121 331.326 121.45 329.032 122.349 326.945C123.281 324.858 124.582 323.039 126.253 321.489C127.923 319.939 129.883 318.753 132.132 317.931C134.381 317.077 136.855 316.65 139.553 316.65C142.541 316.65 145.224 317.14 147.601 318.121C150.011 319.101 152.035 320.524 153.673 322.39L148.662 326.945C147.441 325.68 146.107 324.747 144.662 324.146C143.216 323.513 141.642 323.197 139.939 323.197C138.301 323.197 136.807 323.45 135.457 323.956C134.108 324.462 132.935 325.19 131.939 326.138C130.976 327.087 130.221 328.21 129.674 329.507C129.16 330.804 128.903 332.243 128.903 333.824C128.903 335.374 129.16 336.797 129.674 338.094C130.221 339.391 130.976 340.53 131.939 341.51C132.935 342.459 134.092 343.186 135.409 343.692C136.758 344.198 138.236 344.452 139.843 344.452C141.385 344.452 142.879 344.214 144.324 343.74C145.802 343.234 147.232 342.396 148.613 341.225L153.047 346.776C151.216 348.136 149.079 349.18 146.638 349.907C144.228 350.635 141.818 350.999 139.409 350.999ZM145.915 345.78V333.302H153.047V346.776L145.915 345.78ZM157.841 350.429V315.227H165.359V350.429H157.841ZM182.745 350.809C179.982 350.809 177.524 350.24 175.372 349.101C173.252 347.962 171.565 346.413 170.312 344.452C169.091 342.459 168.481 340.198 168.481 337.667C168.481 335.105 169.091 332.844 170.312 330.883C171.565 328.89 173.252 327.341 175.372 326.233C177.524 325.095 179.982 324.526 182.745 324.526C185.476 324.526 187.918 325.095 190.07 326.233C192.223 327.341 193.909 328.874 195.13 330.835C196.351 332.796 196.961 335.074 196.961 337.667C196.961 340.198 196.351 342.459 195.13 344.452C193.909 346.413 192.223 347.962 190.07 349.101C187.918 350.24 185.476 350.809 182.745 350.809ZM182.745 344.736C183.998 344.736 185.123 344.451 186.119 343.882C187.114 343.313 187.902 342.506 188.48 341.463C189.058 340.387 189.347 339.122 189.347 337.667C189.347 336.181 189.058 334.915 188.48 333.872C187.902 332.828 187.114 332.021 186.119 331.452C185.123 330.883 183.998 330.598 182.745 330.598C181.492 330.598 180.368 330.883 179.372 331.452C178.376 332.021 177.573 332.828 176.962 333.872C176.384 334.915 176.095 336.181 176.095 337.667C176.095 339.122 176.384 340.387 176.962 341.463C177.573 342.506 178.376 343.313 179.372 343.882C180.368 344.451 181.492 344.736 182.745 344.736ZM215.384 350.809C213.102 350.809 211.143 350.334 209.505 349.386C207.866 348.437 206.613 346.997 205.746 345.068C204.878 343.107 204.444 340.64 204.444 337.667C204.444 334.662 204.893 332.195 205.793 330.266C206.724 328.337 208.01 326.898 209.649 325.949C211.287 325 213.199 324.526 215.384 324.526C217.826 324.526 220.009 325.063 221.937 326.138C223.897 327.214 225.439 328.732 226.564 330.693C227.72 332.654 228.299 334.979 228.299 337.667C228.299 340.324 227.72 342.633 226.564 344.594C225.439 346.555 223.897 348.089 221.937 349.196C220.009 350.271 217.826 350.809 215.384 350.809ZM200.058 350.429V315.227H207.577V330.076L207.095 337.62L207.239 345.211V350.429H200.058ZM214.083 344.736C215.335 344.736 216.443 344.451 217.408 343.882C218.404 343.313 219.191 342.506 219.768 341.463C220.38 340.387 220.685 339.122 220.685 337.667C220.685 336.181 220.38 334.915 219.768 333.872C219.191 332.828 218.404 332.021 217.408 331.452C216.443 330.883 215.335 330.598 214.083 330.598C212.83 330.598 211.705 330.883 210.708 331.452C209.713 332.021 208.926 332.828 208.348 333.872C207.769 334.915 207.48 336.181 207.48 337.667C207.48 339.122 207.769 340.387 208.348 341.463C208.926 342.506 209.713 343.313 210.708 343.882C211.705 344.451 212.83 344.736 214.083 344.736ZM246.882 350.429V345.448L246.4 344.357V335.437C246.4 333.856 245.904 332.622 244.907 331.737C243.943 330.851 242.449 330.408 240.426 330.408C239.044 330.408 237.678 330.63 236.329 331.073C235.012 331.484 233.888 332.053 232.957 332.781L230.258 327.609C231.671 326.629 233.373 325.87 235.365 325.332C237.357 324.794 239.382 324.526 241.438 324.526C245.389 324.526 248.458 325.443 250.642 327.277C252.827 329.111 253.919 331.974 253.919 335.864V350.429H246.882ZM238.98 350.809C236.955 350.809 235.221 350.477 233.775 349.813C232.33 349.117 231.222 348.184 230.45 347.013C229.679 345.843 229.294 344.53 229.294 343.076C229.294 341.557 229.663 340.229 230.402 339.09C231.173 337.952 232.378 337.066 234.016 336.434C235.655 335.769 237.791 335.437 240.426 335.437H247.317V339.755H241.244C239.477 339.755 238.257 340.039 237.582 340.609C236.939 341.178 236.619 341.89 236.619 342.744C236.619 343.692 236.988 344.452 237.727 345.021C238.498 345.559 239.542 345.827 240.859 345.827C242.112 345.827 243.236 345.543 244.233 344.973C245.228 344.373 245.951 343.503 246.4 342.364L247.558 345.78C247.012 347.424 246.015 348.674 244.571 349.528C243.125 350.382 241.261 350.809 238.98 350.809ZM258.795 350.429V315.227H266.312V350.429H258.795ZM271.893 350.429V317.219H278.349L298.253 341.13H295.12V317.219H302.83V350.429H296.422L276.471 326.518H279.604V350.429H271.893ZM320.691 350.809C317.927 350.809 315.469 350.24 313.318 349.101C311.199 347.962 309.511 346.413 308.259 344.452C307.036 342.459 306.428 340.198 306.428 337.667C306.428 335.105 307.036 332.844 308.259 330.883C309.511 328.89 311.199 327.341 313.318 326.233C315.469 325.095 317.927 324.526 320.691 324.526C323.421 324.526 325.865 325.095 328.017 326.233C330.168 327.341 331.855 328.874 333.076 330.835C334.297 332.796 334.907 335.074 334.907 337.667C334.907 340.198 334.297 342.459 333.076 344.452C331.855 346.413 330.168 347.962 328.017 349.101C325.865 350.24 323.421 350.809 320.691 350.809ZM320.691 344.736C321.944 344.736 323.07 344.451 324.065 343.882C325.059 343.313 325.847 342.506 326.426 341.463C327.005 340.387 327.294 339.122 327.294 337.667C327.294 336.181 327.005 334.915 326.426 333.872C325.847 332.828 325.059 332.021 324.065 331.452C323.07 330.883 321.944 330.598 320.691 330.598C319.439 330.598 318.312 330.883 317.317 331.452C316.324 332.021 315.519 332.828 314.909 333.872C314.33 334.915 314.041 336.181 314.041 337.667C314.041 339.122 314.33 340.387 314.909 341.463C315.519 342.506 316.324 343.313 317.317 343.882C318.312 344.451 319.439 344.736 320.691 344.736ZM371.209 324.526C373.265 324.526 375.078 324.937 376.656 325.759C378.259 326.55 379.512 327.783 380.413 329.46C381.343 331.104 381.812 333.223 381.812 335.817V350.429H374.293V336.956C374.293 334.899 373.86 333.381 372.993 332.401C372.126 331.421 370.903 330.93 369.33 330.93C368.235 330.93 367.258 331.183 366.391 331.689C365.523 332.164 364.848 332.891 364.366 333.872C363.884 334.852 363.643 336.102 363.643 337.62V350.429H356.126V336.956C356.126 334.899 355.691 333.381 354.824 332.401C353.988 331.421 352.783 330.93 351.211 330.93C350.115 330.93 349.138 331.183 348.271 331.689C347.404 332.164 346.728 332.891 346.246 333.872C345.764 334.852 345.523 336.102 345.523 337.62V350.429H338.006V324.905H345.187V331.879L343.838 329.839C344.736 328.1 346.005 326.787 347.645 325.901C349.314 324.984 351.211 324.526 353.33 324.526C355.706 324.526 357.778 325.126 359.547 326.328C361.344 327.498 362.535 329.301 363.113 331.737L360.462 331.025C361.33 329.032 362.712 327.451 364.607 326.281C366.535 325.111 368.735 324.526 371.209 324.526ZM402.525 350.429V345.448L402.043 344.357V335.437C402.043 333.856 401.545 332.622 400.55 331.737C399.586 330.851 398.092 330.408 396.067 330.408C394.684 330.408 393.321 330.63 391.972 331.073C390.654 331.484 389.527 332.053 388.598 332.781L385.899 327.609C387.311 326.629 389.014 325.87 391.008 325.332C392.997 324.794 395.021 324.526 397.079 324.526C401.032 324.526 404.098 325.443 406.283 327.277C408.467 329.111 409.56 331.974 409.56 335.864V350.429H402.525ZM394.621 350.809C392.598 350.809 390.864 350.477 389.418 349.813C387.971 349.117 386.863 348.184 386.093 347.013C385.32 345.843 384.935 344.53 384.935 343.076C384.935 341.557 385.304 340.229 386.043 339.09C386.814 337.952 388.019 337.066 389.659 336.434C391.296 335.769 393.431 335.437 396.067 335.437H402.958V339.755H396.887C395.118 339.755 393.898 340.039 393.224 340.609C392.58 341.178 392.26 341.89 392.26 342.744C392.26 343.692 392.629 344.452 393.369 345.021C394.139 345.559 395.184 345.827 396.502 345.827C397.754 345.827 398.876 345.543 399.874 344.973C400.869 344.373 401.592 343.503 402.043 342.364L403.199 345.78C402.653 347.424 401.658 348.674 400.212 349.528C398.766 350.382 396.9 350.809 394.621 350.809ZM425.755 350.809C423.314 350.809 421.116 350.271 419.153 349.196C417.196 348.089 415.636 346.555 414.479 344.594C413.356 342.633 412.792 340.324 412.792 337.667C412.792 334.979 413.356 332.654 414.479 330.693C415.636 328.732 417.196 327.214 419.153 326.138C421.116 325.063 423.314 324.526 425.755 324.526C427.941 324.526 429.853 325 431.49 325.949C433.128 326.898 434.399 328.337 435.297 330.266C436.199 332.195 436.647 334.662 436.647 337.667C436.647 340.64 436.214 343.107 435.345 345.068C434.478 346.997 433.225 348.437 431.587 349.386C429.982 350.334 428.038 350.809 425.755 350.809ZM427.057 344.736C428.279 344.736 429.387 344.451 430.382 343.882C431.381 343.313 432.166 342.506 432.743 341.463C433.356 340.387 433.66 339.122 433.66 337.667C433.66 336.181 433.356 334.915 432.743 333.872C432.166 332.828 431.381 332.021 430.382 331.452C429.387 330.883 428.279 330.598 427.057 330.598C425.805 330.598 424.682 330.883 423.683 331.452C422.688 332.021 421.886 332.828 421.275 333.872C420.696 334.915 420.407 336.181 420.407 337.667C420.407 339.122 420.696 340.387 421.275 341.463C421.886 342.506 422.688 343.313 423.683 343.882C424.682 344.451 425.805 344.736 427.057 344.736ZM433.851 350.429V345.211L433.996 337.62L433.515 330.076V315.227H441.032V350.429H433.851Z" fill="#0B3B2D"/>
<path fill-rule="evenodd" clip-rule="evenodd" d="M291.291 159C326.433 159 354.921 187.109 354.921 221.784C354.921 256.458 326.433 284.567 291.291 284.567C256.15 284.567 227.662 256.458 227.662 221.784C227.662 187.109 256.15 159 291.291 159ZM288.991 163.698C281.733 164.706 274.821 170.461 269.455 180.087C267.899 182.879 266.494 185.964 265.271 189.295C272.566 187.485 280.581 186.419 288.991 186.254V163.698ZM259.893 190.803C261.415 186.09 263.276 181.754 265.425 177.9C268.085 173.128 271.241 169.008 274.798 165.843C255.458 171.385 240.214 186.426 234.597 205.509C237.804 202 241.981 198.885 246.817 196.261C250.723 194.141 255.117 192.304 259.893 190.803ZM258.364 196.108C256.531 203.307 255.45 211.215 255.283 219.514H232.423C233.445 212.352 239.278 205.532 249.033 200.238C251.863 198.702 254.989 197.316 258.364 196.108ZM259.884 219.514C260.074 210.457 261.395 201.955 263.581 194.442C271.195 192.285 279.813 190.981 288.991 190.793V200.597C285.567 209.246 278.583 216.137 269.817 219.514H259.884ZM255.283 224.053H232.423C233.445 231.216 239.278 238.035 249.033 243.33C251.863 244.865 254.989 246.251 258.364 247.459C256.531 240.26 255.45 232.352 255.283 224.053ZM263.581 249.125C261.395 241.613 260.074 233.11 259.884 224.053H269.817C278.583 227.43 285.568 234.321 288.991 242.971V252.774C279.813 252.587 271.195 251.282 263.581 249.125ZM259.893 252.765C255.117 251.263 250.723 249.426 246.817 247.307C241.981 244.682 237.804 241.567 234.597 238.058C240.214 257.141 255.458 272.182 274.798 277.724C271.241 274.559 268.085 270.439 265.425 265.667C263.276 261.813 261.415 257.478 259.893 252.765ZM288.991 279.869C281.733 278.861 274.821 273.106 269.455 263.48C267.899 260.688 266.494 257.603 265.271 254.273C272.566 256.082 280.581 257.148 288.991 257.313V279.869ZM307.785 277.724C311.341 274.559 314.499 270.439 317.158 265.667C319.306 261.813 321.168 257.478 322.69 252.765C327.466 251.263 331.86 249.426 335.766 247.307C340.602 244.682 344.779 241.567 347.986 238.058C342.369 257.141 327.125 272.182 307.785 277.724ZM317.312 254.273C316.088 257.603 314.684 260.688 313.128 263.48C307.763 273.106 300.85 278.861 293.591 279.869V257.313C302.002 257.148 310.017 256.082 317.312 254.273ZM324.218 247.459C327.593 246.251 330.72 244.865 333.55 243.33C343.305 238.035 349.138 231.216 350.159 224.053H327.3C327.132 232.352 326.052 240.26 324.218 247.459ZM322.699 224.053C322.509 233.11 321.187 241.613 319.002 249.125C311.388 251.282 302.77 252.587 293.591 252.774V242.978C297.014 234.325 304 227.431 312.769 224.053H322.699ZM327.3 219.514H350.159C349.138 212.352 343.305 205.532 333.55 200.238C330.72 198.702 327.593 197.316 324.218 196.108C326.052 203.307 327.132 211.215 327.3 219.514ZM319.002 194.442C321.187 201.955 322.509 210.457 322.699 219.514H312.769C304 216.136 297.014 209.242 293.591 200.59V190.793C302.77 190.981 311.388 192.285 319.002 194.442ZM322.69 190.803C327.466 192.304 331.86 194.141 335.766 196.261C340.602 198.885 344.779 202 347.986 205.509C342.369 186.426 327.125 171.385 307.785 165.843C311.341 169.008 314.499 173.128 317.158 177.9C319.306 181.754 321.168 186.09 322.69 190.803ZM293.591 163.698C300.85 164.706 307.763 170.461 313.128 180.087C314.684 182.879 316.088 185.964 317.312 189.295C310.017 187.485 302.002 186.419 293.591 186.254V163.698Z" fill="#0B3B2D"/>
</svg>
