<svg width="581" height="511" viewBox="0 0 581 511" fill="none" xmlns="http://www.w3.org/2000/svg">
<rect width="581" height="511" fill="#DDDDDD"/>
<path d="M455.004 328.897C458.319 328.897 460.999 326.254 460.999 322.994C460.999 319.734 458.319 317.091 455.004 317.091C451.694 317.091 449.01 319.734 449.01 322.994C449.01 326.254 451.694 328.897 455.004 328.897Z" fill="#0B3B2D"/>
<path d="M139.409 351.339C136.742 351.339 134.285 350.928 132.036 350.106C129.819 349.252 127.875 348.05 126.205 346.5C124.566 344.951 123.281 343.132 122.349 341.044C121.45 338.957 121 336.664 121 334.165C121 331.666 121.45 329.373 122.349 327.286C123.281 325.198 124.582 323.38 126.253 321.83C127.923 320.28 129.883 319.094 132.132 318.272C134.381 317.418 136.855 316.991 139.553 316.991C142.541 316.991 145.224 317.481 147.601 318.461C150.011 319.442 152.035 320.865 153.673 322.731L148.662 327.286C147.441 326.021 146.107 325.088 144.662 324.487C143.216 323.854 141.642 323.538 139.939 323.538C138.301 323.538 136.807 323.791 135.457 324.297C134.108 324.803 132.935 325.531 131.939 326.479C130.976 327.428 130.221 328.551 129.674 329.848C129.16 331.145 128.903 332.584 128.903 334.165C128.903 335.715 129.16 337.138 129.674 338.435C130.221 339.732 130.976 340.87 131.939 341.851C132.935 342.8 134.092 343.527 135.409 344.033C136.758 344.539 138.236 344.792 139.843 344.792C141.385 344.792 142.879 344.555 144.324 344.081C145.802 343.575 147.232 342.736 148.613 341.566L153.047 347.117C151.216 348.477 149.079 349.521 146.638 350.248C144.228 350.976 141.818 351.339 139.409 351.339ZM145.915 346.121V333.643H153.047V347.117L145.915 346.121ZM157.841 350.77V315.567H165.359V350.77H157.841ZM182.745 351.15C179.982 351.15 177.524 350.58 175.372 349.442C173.252 348.303 171.565 346.753 170.312 344.792C169.091 342.8 168.481 340.538 168.481 338.008C168.481 335.446 169.091 333.185 170.312 331.224C171.565 329.231 173.252 327.681 175.372 326.574C177.524 325.436 179.982 324.866 182.745 324.866C185.476 324.866 187.918 325.436 190.07 326.574C192.223 327.681 193.909 329.215 195.13 331.176C196.351 333.137 196.961 335.414 196.961 338.008C196.961 340.538 196.351 342.8 195.13 344.792C193.909 346.753 192.223 348.303 190.07 349.442C187.918 350.58 185.476 351.15 182.745 351.15ZM182.745 345.077C183.998 345.077 185.123 344.792 186.119 344.223C187.114 343.654 187.902 342.847 188.48 341.803C189.058 340.728 189.347 339.463 189.347 338.008C189.347 336.521 189.058 335.256 188.48 334.213C187.902 333.169 187.114 332.362 186.119 331.793C185.123 331.224 183.998 330.939 182.745 330.939C181.492 330.939 180.368 331.224 179.372 331.793C178.376 332.362 177.573 333.169 176.962 334.213C176.384 335.256 176.095 336.521 176.095 338.008C176.095 339.463 176.384 340.728 176.962 341.803C177.573 342.847 178.376 343.654 179.372 344.223C180.368 344.792 181.492 345.077 182.745 345.077ZM215.384 351.15C213.102 351.15 211.143 350.675 209.505 349.726C207.866 348.778 206.613 347.338 205.746 345.409C204.878 343.448 204.444 340.981 204.444 338.008C204.444 335.003 204.893 332.536 205.793 330.607C206.724 328.678 208.01 327.238 209.649 326.289C211.287 325.341 213.199 324.866 215.384 324.866C217.826 324.866 220.009 325.404 221.937 326.479C223.897 327.555 225.439 329.073 226.564 331.034C227.72 332.995 228.299 335.32 228.299 338.008C228.299 340.665 227.72 342.974 226.564 344.935C225.439 346.896 223.897 348.43 221.937 349.537C220.009 350.612 217.826 351.15 215.384 351.15ZM200.058 350.77V315.567H207.577V330.417L207.095 337.961L207.239 345.551V350.77H200.058ZM214.083 345.077C215.335 345.077 216.443 344.792 217.408 344.223C218.404 343.654 219.191 342.847 219.768 341.803C220.38 340.728 220.685 339.463 220.685 338.008C220.685 336.521 220.38 335.256 219.768 334.213C219.191 333.169 218.404 332.362 217.408 331.793C216.443 331.224 215.335 330.939 214.083 330.939C212.83 330.939 211.705 331.224 210.708 331.793C209.713 332.362 208.926 333.169 208.348 334.213C207.769 335.256 207.48 336.521 207.48 338.008C207.48 339.463 207.769 340.728 208.348 341.803C208.926 342.847 209.713 343.654 210.708 344.223C211.705 344.792 212.83 345.077 214.083 345.077ZM246.882 350.77V345.789L246.4 344.697V335.778C246.4 334.197 245.904 332.963 244.907 332.078C243.943 331.192 242.449 330.749 240.426 330.749C239.044 330.749 237.678 330.971 236.329 331.413C235.012 331.825 233.888 332.394 232.957 333.121L230.258 327.95C231.671 326.97 233.373 326.211 235.365 325.673C237.357 325.135 239.382 324.866 241.438 324.866C245.389 324.866 248.458 325.784 250.642 327.618C252.827 329.452 253.919 332.315 253.919 336.205V350.77H246.882ZM238.98 351.15C236.955 351.15 235.221 350.818 233.775 350.153C232.33 349.458 231.222 348.524 230.45 347.354C229.679 346.184 229.294 344.871 229.294 343.417C229.294 341.898 229.663 340.57 230.402 339.431C231.173 338.293 232.378 337.407 234.016 336.774C235.655 336.11 237.791 335.778 240.426 335.778H247.317V340.096H241.244C239.477 340.096 238.257 340.38 237.582 340.949C236.939 341.519 236.619 342.23 236.619 343.084C236.619 344.033 236.988 344.792 237.727 345.362C238.498 345.899 239.542 346.168 240.859 346.168C242.112 346.168 243.236 345.884 244.233 345.314C245.228 344.713 245.951 343.844 246.4 342.705L247.558 346.121C247.012 347.765 246.015 349.015 244.571 349.869C243.125 350.723 241.261 351.15 238.98 351.15ZM258.795 350.77V315.567H266.312V350.77H258.795ZM271.893 350.77V317.56H278.349L298.253 341.471H295.12V317.56H302.83V350.77H296.422L276.471 326.859H279.604V350.77H271.893ZM320.691 351.15C317.927 351.15 315.469 350.58 313.318 349.442C311.199 348.303 309.511 346.753 308.259 344.792C307.036 342.8 306.428 340.538 306.428 338.008C306.428 335.446 307.036 333.185 308.259 331.224C309.511 329.231 311.199 327.681 313.318 326.574C315.469 325.436 317.927 324.866 320.691 324.866C323.421 324.866 325.865 325.436 328.017 326.574C330.168 327.681 331.855 329.215 333.076 331.176C334.297 333.137 334.907 335.414 334.907 338.008C334.907 340.538 334.297 342.8 333.076 344.792C331.855 346.753 330.168 348.303 328.017 349.442C325.865 350.58 323.421 351.15 320.691 351.15ZM320.691 345.077C321.944 345.077 323.07 344.792 324.065 344.223C325.059 343.654 325.847 342.847 326.426 341.803C327.005 340.728 327.294 339.463 327.294 338.008C327.294 336.521 327.005 335.256 326.426 334.213C325.847 333.169 325.059 332.362 324.065 331.793C323.07 331.224 321.944 330.939 320.691 330.939C319.439 330.939 318.312 331.224 317.317 331.793C316.324 332.362 315.519 333.169 314.909 334.213C314.33 335.256 314.041 336.521 314.041 338.008C314.041 339.463 314.33 340.728 314.909 341.803C315.519 342.847 316.324 343.654 317.317 344.223C318.312 344.792 319.439 345.077 320.691 345.077ZM371.209 324.866C373.265 324.866 375.078 325.278 376.656 326.1C378.259 326.89 379.512 328.124 380.413 329.8C381.343 331.445 381.812 333.564 381.812 336.158V350.77H374.293V337.296C374.293 335.24 373.86 333.722 372.993 332.742C372.126 331.761 370.903 331.271 369.33 331.271C368.235 331.271 367.258 331.524 366.391 332.03C365.523 332.505 364.848 333.232 364.366 334.213C363.884 335.193 363.643 336.442 363.643 337.961V350.77H356.126V337.296C356.126 335.24 355.691 333.722 354.824 332.742C353.988 331.761 352.783 331.271 351.211 331.271C350.115 331.271 349.138 331.524 348.271 332.03C347.404 332.505 346.728 333.232 346.246 334.213C345.764 335.193 345.523 336.442 345.523 337.961V350.77H338.006V325.246H345.187V332.22L343.838 330.18C344.736 328.44 346.005 327.128 347.645 326.242C349.314 325.325 351.211 324.866 353.33 324.866C355.706 324.866 357.778 325.467 359.547 326.669C361.344 327.839 362.535 329.642 363.113 332.078L360.462 331.366C361.33 329.373 362.712 327.792 364.607 326.622C366.535 325.451 368.735 324.866 371.209 324.866ZM402.525 350.77V345.789L402.043 344.697V335.778C402.043 334.197 401.545 332.963 400.55 332.078C399.586 331.192 398.092 330.749 396.067 330.749C394.684 330.749 393.321 330.971 391.972 331.413C390.654 331.825 389.527 332.394 388.598 333.121L385.899 327.95C387.311 326.97 389.014 326.211 391.008 325.673C392.997 325.135 395.021 324.866 397.079 324.866C401.032 324.866 404.098 325.784 406.283 327.618C408.467 329.452 409.56 332.315 409.56 336.205V350.77H402.525ZM394.621 351.15C392.598 351.15 390.864 350.818 389.418 350.153C387.971 349.458 386.863 348.524 386.093 347.354C385.32 346.184 384.935 344.871 384.935 343.417C384.935 341.898 385.304 340.57 386.043 339.431C386.814 338.293 388.019 337.407 389.659 336.774C391.296 336.11 393.431 335.778 396.067 335.778H402.958V340.096H396.887C395.118 340.096 393.898 340.38 393.224 340.949C392.58 341.519 392.26 342.23 392.26 343.084C392.26 344.033 392.629 344.792 393.369 345.362C394.139 345.899 395.184 346.168 396.502 346.168C397.754 346.168 398.876 345.884 399.874 345.314C400.869 344.713 401.592 343.844 402.043 342.705L403.199 346.121C402.653 347.765 401.658 349.015 400.212 349.869C398.766 350.723 396.9 351.15 394.621 351.15ZM425.755 351.15C423.314 351.15 421.116 350.612 419.153 349.537C417.196 348.43 415.636 346.896 414.479 344.935C413.356 342.974 412.792 340.665 412.792 338.008C412.792 335.32 413.356 332.995 414.479 331.034C415.636 329.073 417.196 327.555 419.153 326.479C421.116 325.404 423.314 324.866 425.755 324.866C427.941 324.866 429.853 325.341 431.49 326.289C433.128 327.238 434.399 328.678 435.297 330.607C436.199 332.536 436.647 335.003 436.647 338.008C436.647 340.981 436.214 343.448 435.345 345.409C434.478 347.338 433.225 348.778 431.587 349.726C429.982 350.675 428.038 351.15 425.755 351.15ZM427.057 345.077C428.279 345.077 429.387 344.792 430.382 344.223C431.381 343.654 432.166 342.847 432.743 341.803C433.356 340.728 433.66 339.463 433.66 338.008C433.66 336.521 433.356 335.256 432.743 334.213C432.166 333.169 431.381 332.362 430.382 331.793C429.387 331.224 428.279 330.939 427.057 330.939C425.805 330.939 424.682 331.224 423.683 331.793C422.688 332.362 421.886 333.169 421.275 334.213C420.696 335.256 420.407 336.521 420.407 338.008C420.407 339.463 420.696 340.728 421.275 341.803C421.886 342.847 422.688 343.654 423.683 344.223C424.682 344.792 425.805 345.077 427.057 345.077ZM433.851 350.77V345.551L433.996 337.961L433.515 330.417V315.567H441.032V350.77H433.851Z" fill="#0B3B2D"/>
<path fill-rule="evenodd" clip-rule="evenodd" d="M291.291 159C326.433 159 354.921 187.109 354.921 221.784C354.921 256.458 326.433 284.567 291.291 284.567C256.15 284.567 227.662 256.458 227.662 221.784C227.662 187.109 256.15 159 291.291 159ZM288.991 163.698C281.733 164.706 274.821 170.461 269.455 180.087C267.899 182.879 266.494 185.964 265.271 189.295C272.566 187.485 280.581 186.419 288.991 186.254V163.698ZM259.893 190.803C261.415 186.09 263.276 181.754 265.425 177.9C268.085 173.128 271.241 169.008 274.798 165.843C255.458 171.385 240.214 186.426 234.597 205.509C237.804 202 241.981 198.885 246.817 196.261C250.723 194.141 255.117 192.304 259.893 190.803ZM258.364 196.108C256.531 203.307 255.45 211.215 255.283 219.514H232.423C233.445 212.352 239.278 205.532 249.033 200.238C251.863 198.702 254.989 197.316 258.364 196.108ZM259.884 219.514C260.074 210.457 261.395 201.955 263.581 194.442C271.195 192.285 279.813 190.981 288.991 190.793V200.597C285.567 209.246 278.583 216.137 269.817 219.514H259.884ZM255.283 224.053H232.423C233.445 231.216 239.278 238.035 249.033 243.33C251.863 244.865 254.989 246.251 258.364 247.459C256.531 240.26 255.45 232.352 255.283 224.053ZM263.581 249.125C261.395 241.613 260.074 233.11 259.884 224.053H269.817C278.583 227.43 285.568 234.321 288.991 242.971V252.774C279.813 252.587 271.195 251.282 263.581 249.125ZM259.893 252.765C255.117 251.263 250.723 249.426 246.817 247.307C241.981 244.682 237.804 241.567 234.597 238.058C240.214 257.141 255.458 272.182 274.798 277.724C271.241 274.559 268.085 270.439 265.425 265.667C263.276 261.813 261.415 257.478 259.893 252.765ZM288.991 279.869C281.733 278.861 274.821 273.106 269.455 263.48C267.899 260.688 266.494 257.603 265.271 254.273C272.566 256.082 280.581 257.148 288.991 257.313V279.869ZM307.785 277.724C311.341 274.559 314.499 270.439 317.158 265.667C319.306 261.813 321.168 257.478 322.69 252.765C327.466 251.263 331.86 249.426 335.766 247.307C340.602 244.682 344.779 241.567 347.986 238.058C342.369 257.141 327.125 272.182 307.785 277.724ZM317.312 254.273C316.088 257.603 314.684 260.688 313.128 263.48C307.763 273.106 300.85 278.861 293.591 279.869V257.313C302.002 257.148 310.017 256.082 317.312 254.273ZM324.218 247.459C327.593 246.251 330.72 244.865 333.55 243.33C343.305 238.035 349.138 231.216 350.159 224.053H327.3C327.132 232.352 326.052 240.26 324.218 247.459ZM322.699 224.053C322.509 233.11 321.187 241.613 319.002 249.125C311.388 251.282 302.77 252.587 293.591 252.774V242.978C297.014 234.325 304 227.431 312.769 224.053H322.699ZM327.3 219.514H350.159C349.138 212.352 343.305 205.532 333.55 200.238C330.72 198.702 327.593 197.316 324.218 196.108C326.052 203.307 327.132 211.215 327.3 219.514ZM319.002 194.442C321.187 201.955 322.509 210.457 322.699 219.514H312.769C304 216.136 297.014 209.242 293.591 200.59V190.793C302.77 190.981 311.388 192.285 319.002 194.442ZM322.69 190.803C327.466 192.304 331.86 194.141 335.766 196.261C340.602 198.885 344.779 202 347.986 205.509C342.369 186.426 327.125 171.385 307.785 165.843C311.341 169.008 314.499 173.128 317.158 177.9C319.306 181.754 321.168 186.09 322.69 190.803ZM293.591 163.698C300.85 164.706 307.763 170.461 313.128 180.087C314.684 182.879 316.088 185.964 317.312 189.295C310.017 187.485 302.002 186.419 293.591 186.254V163.698Z" fill="#0B3B2D"/>
</svg>
