<svg width="24" height="25" viewBox="0 0 24 25" fill="none" xmlns="http://www.w3.org/2000/svg">
<g clip-path="url(#clip0_449_9368)">
<path d="M18.2987 6.2107C17.9087 5.8207 17.2787 5.8207 16.8887 6.2107L11.9988 11.0907L7.10875 6.2007C6.71875 5.8107 6.08875 5.8107 5.69875 6.2007C5.30875 6.5907 5.30875 7.2207 5.69875 7.6107L10.5888 12.5007L5.69875 17.3907C5.30875 17.7807 5.30875 18.4107 5.69875 18.8007C6.08875 19.1907 6.71875 19.1907 7.10875 18.8007L11.9988 13.9107L16.8887 18.8007C17.2787 19.1907 17.9087 19.1907 18.2987 18.8007C18.6887 18.4107 18.6887 17.7807 18.2987 17.3907L13.4087 12.5007L18.2987 7.6107C18.6787 7.2307 18.6787 6.5907 18.2987 6.2107Z" fill="#1B1B1B"/>
</g>
<defs>
<clipPath id="clip0_449_9368">
<rect width="24" height="24" fill="white" transform="translate(0 0.5)"/>
</clipPath>
</defs>
</svg>
