<svg width="54" height="50" viewBox="0 0 54 50" fill="none" xmlns="http://www.w3.org/2000/svg">
<path d="M42.0918 48.5006L42.0896 48.5006C41.9325 48.5012 41.7792 48.4524 41.6513 48.3612C41.6507 48.3608 41.6501 48.3604 41.6495 48.3599L27.5868 38.1647L26.9998 37.7392L26.4128 38.1647L12.3461 48.3628L12.346 48.3629C12.2172 48.4564 12.062 48.5064 11.9029 48.5058C11.7438 48.5052 11.589 48.4541 11.4609 48.3597C11.3327 48.2654 11.238 48.1327 11.1902 47.9809C11.1424 47.8292 11.1442 47.6662 11.1952 47.5154L11.1954 47.5148L16.6816 31.265L16.9236 30.5482L16.2997 30.1204L2.08098 20.3696L2.08055 20.3693C1.94856 20.2789 1.84893 20.1486 1.79624 19.9976C1.74354 19.8465 1.74054 19.6825 1.78767 19.5297C1.83479 19.3768 1.92958 19.2429 2.05817 19.1477C2.18646 19.0528 2.3417 19.0012 2.5013 19.0006H20.0414H20.7679L20.9924 18.3096L26.2862 2.0182L26.2864 2.01759C26.3352 1.86685 26.4306 1.73546 26.5588 1.64228C26.6869 1.54909 26.8413 1.4989 26.9998 1.4989C27.1583 1.4989 27.3127 1.54909 27.4408 1.64228C27.569 1.73546 27.6644 1.86684 27.7132 2.01758L27.7134 2.01811L33.0072 18.315L33.2316 19.006H33.9582H51.4998H51.5003C51.6605 19.006 51.8165 19.0572 51.9455 19.1522C52.0745 19.2472 52.1696 19.381 52.217 19.534L53.1722 19.238L52.217 19.534C52.2645 19.687 52.2617 19.8512 52.209 20.0025C52.1564 20.1538 52.0567 20.2843 51.9245 20.3748L51.9244 20.3748L37.7002 30.1201L37.0759 30.5479L37.3179 31.2649L42.8009 47.5103L42.801 47.5106C42.8391 47.6233 42.8498 47.7434 42.8322 47.8611C42.8147 47.9788 42.7694 48.0906 42.7001 48.1873C42.6308 48.2841 42.5395 48.3629 42.4337 48.4174C42.328 48.4718 42.2107 48.5003 42.0918 48.5006Z" stroke="#112211" stroke-width="2"/>
</svg>
