<svg width="54" height="50" viewBox="0 0 54 50" fill="none" xmlns="http://www.w3.org/2000/svg">
<path d="M42.0936 49.5006C41.7252 49.502 41.3658 49.3872 41.0665 49.1724L26.9998 38.9743L12.9331 49.1724C12.6326 49.3904 12.2705 49.5072 11.8992 49.5058C11.528 49.5045 11.1668 49.3851 10.8679 49.1649C10.5689 48.9448 10.3477 48.6353 10.2363 48.2811C10.1249 47.927 10.1289 47.5466 10.2479 47.1949L15.7342 30.9451L1.51542 21.1943C1.20743 20.9833 0.974982 20.6794 0.85203 20.3269C0.729079 19.9744 0.72207 19.5919 0.832029 19.2351C0.941988 18.8784 1.16315 18.5661 1.46321 18.344C1.76326 18.1219 2.12648 18.0015 2.4998 18.0006H20.0414L25.3351 1.70916C25.4492 1.35744 25.6717 1.05087 25.9707 0.833444C26.2698 0.616016 26.6301 0.498901 26.9998 0.498901C27.3696 0.498901 27.7298 0.616016 28.0289 0.833444C28.3279 1.05087 28.5505 1.35744 28.6645 1.70916L33.9582 18.006H51.4998C51.8736 18.0059 52.2376 18.1254 52.5386 18.347C52.8395 18.5687 53.0616 18.8809 53.1722 19.238C53.2829 19.595 53.2763 19.9781 53.1535 20.3311C53.0307 20.6841 52.798 20.9885 52.4896 21.1998L38.2654 30.9451L43.7484 47.1906C43.8372 47.4536 43.8622 47.734 43.8213 48.0085C43.7804 48.2831 43.6747 48.544 43.513 48.7697C43.3514 48.9954 43.1383 49.1794 42.8915 49.3064C42.6447 49.4335 42.3712 49.5001 42.0936 49.5006Z" fill="#FFC23D"/>
</svg>
