<svg width="340" height="192" viewBox="0 0 340 192" fill="none" xmlns="http://www.w3.org/2000/svg">
<path d="M334.006 169.556C337.321 169.556 340.001 166.913 340.001 163.653C340.001 160.393 337.321 157.75 334.006 157.75C330.696 157.75 328.012 160.393 328.012 163.653C328.012 166.913 330.696 169.556 334.006 169.556Z" fill="#0B3B2D"/>
<path d="M18.4088 191.999C15.7422 191.999 13.2846 191.588 11.0357 190.765C8.81889 189.911 6.87509 188.709 5.2046 187.16C3.56608 185.61 2.2812 183.791 1.34931 181.703C0.449876 179.616 0 177.323 0 174.824C0 172.326 0.449876 170.032 1.34931 167.945C2.2812 165.858 3.58231 164.039 5.2528 162.489C6.92329 160.939 8.88332 159.753 11.1321 158.931C13.381 158.077 15.8548 157.65 18.5534 157.65C21.5413 157.65 24.2238 158.14 26.6012 159.121C29.0108 160.101 31.0348 161.524 32.6733 163.39L27.6615 167.945C26.4406 166.68 25.1073 165.747 23.6616 165.146C22.2159 164.513 20.6418 164.197 18.939 164.197C17.3005 164.197 15.8066 164.45 14.4573 164.956C13.108 165.462 11.9351 166.19 10.9393 167.138C9.97556 168.087 9.22056 169.21 8.67428 170.507C8.16046 171.804 7.90322 173.243 7.90322 174.824C7.90322 176.374 8.16046 177.797 8.67428 179.094C9.22056 180.391 9.97556 181.53 10.9393 182.51C11.9351 183.459 13.0917 184.186 14.4091 184.692C15.7584 185.198 17.2361 185.452 18.8426 185.452C20.3847 185.452 21.8787 185.214 23.3244 184.74C24.8021 184.234 26.2319 183.396 27.6133 182.225L32.0469 187.776C30.2157 189.136 28.0791 190.18 25.6376 190.907C23.228 191.635 20.8184 191.999 18.4088 191.999ZM24.9147 186.78V174.302H32.0469V187.776L24.9147 186.78ZM36.8411 191.429V156.227H44.3587V191.429H36.8411ZM61.7451 191.809C58.9821 191.809 56.5245 191.24 54.372 190.101C52.2516 188.962 50.5649 187.413 49.312 185.452C48.091 183.459 47.4806 181.197 47.4806 178.667C47.4806 176.105 48.091 173.844 49.312 171.883C50.5649 169.89 52.2516 168.341 54.372 167.233C56.5245 166.095 58.9821 165.526 61.7451 165.526C64.4759 165.526 66.9178 166.095 69.0704 167.233C71.2231 168.341 72.9085 169.874 74.1299 171.835C75.3514 173.796 75.9613 176.074 75.9613 178.667C75.9613 181.197 75.3514 183.459 74.1299 185.452C72.9085 187.413 71.2231 188.962 69.0704 190.101C66.9178 191.24 64.4759 191.809 61.7451 191.809ZM61.7451 185.736C62.9982 185.736 64.1227 185.451 65.1186 184.882C66.1144 184.313 66.9015 183.506 67.4799 182.463C68.0582 181.387 68.3472 180.122 68.3472 178.667C68.3472 177.181 68.0582 175.915 67.4799 174.872C66.9015 173.828 66.1144 173.021 65.1186 172.452C64.1227 171.883 62.9982 171.598 61.7451 171.598C60.4922 171.598 59.3677 171.883 58.3719 172.452C57.376 173.021 56.5727 173.828 55.9623 174.872C55.384 175.915 55.0948 177.181 55.0948 178.667C55.0948 180.122 55.384 181.387 55.9623 182.463C56.5727 183.506 57.376 184.313 58.3719 184.882C59.3677 185.451 60.4922 185.736 61.7451 185.736ZM94.3844 191.809C92.1022 191.809 90.1429 191.334 88.5051 190.386C86.8656 189.437 85.613 187.997 84.7457 186.068C83.8784 184.107 83.4439 181.64 83.4439 178.667C83.4439 175.662 83.8932 173.195 84.7933 171.266C85.7245 169.337 87.0099 167.898 88.6494 166.949C90.2872 166 92.1989 165.526 94.3844 165.526C96.8256 165.526 99.0094 166.063 100.937 167.138C102.897 168.214 104.439 169.732 105.564 171.693C106.72 173.654 107.299 175.979 107.299 178.667C107.299 181.324 106.72 183.633 105.564 185.594C104.439 187.555 102.897 189.089 100.937 190.196C99.0094 191.271 96.8256 191.809 94.3844 191.809ZM79.0583 191.429V156.227H86.577V171.076L86.095 178.62L86.2393 186.211V191.429H79.0583ZM93.0826 185.736C94.3352 185.736 95.4435 185.451 96.4075 184.882C97.4043 184.313 98.1913 183.506 98.7684 182.463C99.3799 181.387 99.6849 180.122 99.6849 178.667C99.6849 177.181 99.3799 175.915 98.7684 174.872C98.1913 173.828 97.4043 173.021 96.4075 172.452C95.4435 171.883 94.3352 171.598 93.0826 171.598C91.83 171.598 90.7053 171.883 89.7085 172.452C88.7133 173.021 87.9264 173.828 87.3476 174.872C86.7689 175.915 86.4803 177.181 86.4803 178.667C86.4803 180.122 86.7689 181.387 87.3476 182.463C87.9264 183.506 88.7133 184.313 89.7085 184.882C90.7053 185.451 91.83 185.736 93.0826 185.736ZM125.882 191.429V186.448L125.4 185.357V176.437C125.4 174.856 124.904 173.622 123.907 172.737C122.943 171.851 121.449 171.408 119.426 171.408C118.044 171.408 116.678 171.63 115.329 172.073C114.012 172.484 112.888 173.053 111.957 173.781L109.258 168.609C110.671 167.629 112.373 166.87 114.365 166.332C116.357 165.794 118.382 165.526 120.438 165.526C124.389 165.526 127.458 166.443 129.642 168.277C131.827 170.111 132.919 172.974 132.919 176.864V191.429H125.882ZM117.98 191.809C115.955 191.809 114.221 191.477 112.775 190.813C111.33 190.117 110.222 189.184 109.45 188.013C108.679 186.843 108.294 185.53 108.294 184.076C108.294 182.557 108.663 181.229 109.402 180.09C110.173 178.952 111.378 178.066 113.016 177.434C114.655 176.769 116.791 176.437 119.426 176.437H126.317V180.755H120.244C118.477 180.755 117.257 181.039 116.582 181.609C115.939 182.178 115.619 182.89 115.619 183.744C115.619 184.692 115.988 185.452 116.727 186.021C117.498 186.559 118.542 186.827 119.859 186.827C121.112 186.827 122.236 186.543 123.233 185.973C124.228 185.373 124.951 184.503 125.4 183.364L126.558 186.78C126.012 188.424 125.015 189.674 123.571 190.528C122.125 191.382 120.261 191.809 117.98 191.809ZM137.795 191.429V156.227H145.312V191.429H137.795ZM150.893 191.429V158.219H157.349L177.253 182.13H174.12V158.219H181.83V191.429H175.422L155.471 167.518H158.604V191.429H150.893ZM199.691 191.809C196.927 191.809 194.469 191.24 192.318 190.101C190.199 188.962 188.511 187.413 187.259 185.452C186.036 183.459 185.428 181.197 185.428 178.667C185.428 176.105 186.036 173.844 187.259 171.883C188.511 169.89 190.199 168.341 192.318 167.233C194.469 166.095 196.927 165.526 199.691 165.526C202.421 165.526 204.865 166.095 207.017 167.233C209.168 168.341 210.855 169.874 212.076 171.835C213.297 173.796 213.907 176.074 213.907 178.667C213.907 181.197 213.297 183.459 212.076 185.452C210.855 187.413 209.168 188.962 207.017 190.101C204.865 191.24 202.421 191.809 199.691 191.809ZM199.691 185.736C200.944 185.736 202.07 185.451 203.065 184.882C204.059 184.313 204.847 183.506 205.426 182.463C206.005 181.387 206.294 180.122 206.294 178.667C206.294 177.181 206.005 175.915 205.426 174.872C204.847 173.828 204.059 173.021 203.065 172.452C202.07 171.883 200.944 171.598 199.691 171.598C198.439 171.598 197.312 171.883 196.317 172.452C195.324 173.021 194.519 173.828 193.909 174.872C193.33 175.915 193.041 177.181 193.041 178.667C193.041 180.122 193.33 181.387 193.909 182.463C194.519 183.506 195.324 184.313 196.317 184.882C197.312 185.451 198.439 185.736 199.691 185.736ZM250.209 165.526C252.265 165.526 254.078 165.937 255.656 166.759C257.259 167.55 258.512 168.783 259.413 170.46C260.343 172.104 260.812 174.223 260.812 176.817V191.429H253.293V177.956C253.293 175.899 252.86 174.381 251.993 173.401C251.126 172.421 249.903 171.93 248.33 171.93C247.235 171.93 246.258 172.183 245.391 172.689C244.523 173.164 243.848 173.891 243.366 174.872C242.884 175.852 242.643 177.102 242.643 178.62V191.429H235.126V177.956C235.126 175.899 234.691 174.381 233.824 173.401C232.988 172.421 231.783 171.93 230.211 171.93C229.115 171.93 228.138 172.183 227.271 172.689C226.404 173.164 225.728 173.891 225.246 174.872C224.764 175.852 224.523 177.102 224.523 178.62V191.429H217.006V165.905H224.187V172.879L222.838 170.839C223.736 169.1 225.005 167.787 226.645 166.901C228.314 165.984 230.211 165.526 232.33 165.526C234.706 165.526 236.778 166.126 238.547 167.328C240.344 168.498 241.535 170.301 242.113 172.737L239.462 172.025C240.33 170.032 241.712 168.451 243.607 167.281C245.535 166.111 247.735 165.526 250.209 165.526ZM281.525 191.429V186.448L281.043 185.357V176.437C281.043 174.856 280.545 173.622 279.55 172.737C278.586 171.851 277.092 171.408 275.067 171.408C273.684 171.408 272.321 171.63 270.972 172.073C269.654 172.484 268.527 173.053 267.598 173.781L264.899 168.609C266.311 167.629 268.014 166.87 270.008 166.332C271.997 165.794 274.021 165.526 276.079 165.526C280.032 165.526 283.098 166.443 285.283 168.277C287.467 170.111 288.56 172.974 288.56 176.864V191.429H281.525ZM273.621 191.809C271.598 191.809 269.864 191.477 268.418 190.813C266.971 190.117 265.863 189.184 265.093 188.013C264.32 186.843 263.935 185.53 263.935 184.076C263.935 182.557 264.304 181.229 265.043 180.09C265.814 178.952 267.019 178.066 268.659 177.434C270.296 176.769 272.431 176.437 275.067 176.437H281.958V180.755H275.887C274.118 180.755 272.898 181.039 272.224 181.609C271.58 182.178 271.26 182.89 271.26 183.744C271.26 184.692 271.629 185.452 272.369 186.021C273.139 186.559 274.184 186.827 275.502 186.827C276.754 186.827 277.876 186.543 278.874 185.973C279.869 185.373 280.592 184.503 281.043 183.364L282.199 186.78C281.653 188.424 280.658 189.674 279.212 190.528C277.766 191.382 275.9 191.809 273.621 191.809ZM304.755 191.809C302.314 191.809 300.116 191.271 298.153 190.196C296.196 189.089 294.636 187.555 293.479 185.594C292.356 183.633 291.792 181.324 291.792 178.667C291.792 175.979 292.356 173.654 293.479 171.693C294.636 169.732 296.196 168.214 298.153 167.138C300.116 166.063 302.314 165.526 304.755 165.526C306.941 165.526 308.853 166 310.49 166.949C312.128 167.898 313.399 169.337 314.297 171.266C315.199 173.195 315.647 175.662 315.647 178.667C315.647 181.64 315.214 184.107 314.345 186.068C313.478 187.997 312.225 189.437 310.587 190.386C308.982 191.334 307.038 191.809 304.755 191.809ZM306.057 185.736C307.279 185.736 308.387 185.451 309.382 184.882C310.381 184.313 311.166 183.506 311.743 182.463C312.356 181.387 312.66 180.122 312.66 178.667C312.66 177.181 312.356 175.915 311.743 174.872C311.166 173.828 310.381 173.021 309.382 172.452C308.387 171.883 307.279 171.598 306.057 171.598C304.805 171.598 303.682 171.883 302.683 172.452C301.688 173.021 300.886 173.828 300.275 174.872C299.696 175.915 299.407 177.181 299.407 178.667C299.407 180.122 299.696 181.387 300.275 182.463C300.886 183.506 301.688 184.313 302.683 184.882C303.682 185.451 304.805 185.736 306.057 185.736ZM312.851 191.429V186.211L312.996 178.62L312.515 171.076V156.227H320.032V191.429H312.851Z" fill="#0B3B2D"/>
<path fill-rule="evenodd" clip-rule="evenodd" d="M170.289 0C205.431 0 233.919 28.1092 233.919 62.7836C233.919 97.458 205.431 125.567 170.289 125.567C135.148 125.567 106.66 97.458 106.66 62.7836C106.66 28.1092 135.148 0 170.289 0ZM167.989 4.69805C160.731 5.70605 153.819 11.4614 148.453 21.0871C146.897 23.8792 145.492 26.9638 144.269 30.2946C151.564 28.4853 159.579 27.4189 167.989 27.254V4.69805ZM138.891 31.8025C140.413 27.0898 142.274 22.754 144.423 18.8999C147.083 14.1281 150.239 10.0076 153.796 6.84269C134.456 12.3848 119.212 27.4263 113.595 46.5092C116.802 42.9998 120.979 39.8852 125.815 37.2608C129.721 35.141 134.115 33.3038 138.891 31.8025ZM137.363 37.1084C135.529 44.3074 134.448 52.2153 134.281 60.5142H111.421C112.443 53.3515 118.276 46.5316 128.031 41.2377C130.861 39.7018 133.987 38.3161 137.363 37.1084ZM138.882 60.5142C139.072 51.4574 140.393 42.9546 142.579 35.442C150.193 33.2848 158.811 31.9808 167.989 31.7933V41.5968C164.565 50.2461 157.581 57.137 148.815 60.5142H138.882ZM134.281 65.053H111.421C112.443 72.2156 118.276 79.0353 128.031 84.3295C130.861 85.8653 133.987 87.2508 137.363 88.4587C135.529 81.2598 134.448 73.3519 134.281 65.053ZM142.579 90.1254C140.393 82.6126 139.072 74.1097 138.882 65.053H148.815C157.581 68.4302 164.566 75.321 167.989 83.9707V93.7741C158.811 93.5866 150.193 92.2821 142.579 90.1254ZM138.891 93.7649C134.115 92.2634 129.721 90.4262 125.815 88.3066C120.979 85.6823 116.802 82.5671 113.595 79.0579C119.212 98.1408 134.456 113.182 153.796 118.724C150.239 115.559 147.083 111.439 144.423 106.667C142.274 102.813 140.413 98.4776 138.891 93.7649ZM167.989 120.869C160.731 119.861 153.819 114.106 148.453 104.48C146.897 101.688 145.492 98.6032 144.269 95.2726C151.564 97.0818 159.579 98.148 167.989 98.3132V120.869ZM186.783 118.724C190.339 115.559 193.497 111.439 196.156 106.667C198.304 102.813 200.166 98.4776 201.688 93.7649C206.464 92.2634 210.858 90.4262 214.764 88.3066C219.6 85.6823 223.777 82.5671 226.984 79.0579C221.367 98.1408 206.123 113.182 186.783 118.724ZM196.31 95.2726C195.086 98.6032 193.682 101.688 192.126 104.48C186.761 114.106 179.848 119.861 172.589 120.869V98.3132C181 98.148 189.015 97.0818 196.31 95.2726ZM203.216 88.4587C206.591 87.2508 209.718 85.8653 212.548 84.3295C222.303 79.0353 228.136 72.2156 229.157 65.053H206.298C206.13 73.3519 205.05 81.2598 203.216 88.4587ZM201.697 65.053C201.508 74.1097 200.185 82.6126 198 90.1254C190.386 92.2821 181.768 93.5866 172.589 93.7741V83.9779C176.012 75.325 182.998 68.4313 191.767 65.053H201.697ZM206.298 60.5142H229.157C228.136 53.3515 222.303 46.5316 212.548 41.2377C209.718 39.7018 206.591 38.3161 203.216 37.1084C205.05 44.3074 206.13 52.2153 206.298 60.5142ZM198 35.442C200.185 42.9546 201.508 51.4574 201.697 60.5142H191.767C182.998 57.1359 176.012 50.2422 172.589 41.5895V31.7933C181.768 31.9808 190.386 33.2848 198 35.442ZM201.688 31.8025C206.464 33.3038 210.858 35.141 214.764 37.2608C219.6 39.8852 223.777 42.9998 226.984 46.5092C221.367 27.4263 206.123 12.3848 186.783 6.84269C190.339 10.0076 193.497 14.1281 196.156 18.8999C198.304 22.754 200.166 27.0898 201.688 31.8025ZM172.589 4.69805C179.848 5.70605 186.761 11.4614 192.126 21.0871C193.682 23.8792 195.086 26.9638 196.31 30.2946C189.015 28.4853 181 27.4189 172.589 27.254V4.69805Z" fill="#0B3B2D"/>
</svg>
