<svg width="166" height="28" viewBox="0 0 166 28" fill="none" xmlns="http://www.w3.org/2000/svg">
<g clip-path="url(#clip0_226_285)">
<rect width="165.511" height="28" fill="white"/>
<path d="M162.978 12.0228C164.236 12.0228 165.253 11.0028 165.253 9.74469C165.253 8.48662 164.236 7.4668 162.978 7.4668C161.722 7.4668 160.703 8.48662 160.703 9.74469C160.703 11.0028 161.722 12.0228 162.978 12.0228Z" fill="#0B3B2D"/>
<path d="M43.2013 20.6814C42.1893 20.6814 41.2566 20.5228 40.4031 20.2054C39.5618 19.8759 38.8241 19.4121 38.1901 18.8141C37.5682 18.2161 37.0806 17.5142 36.7269 16.7087C36.3856 15.9031 36.2148 15.0182 36.2148 14.0541C36.2148 13.0899 36.3856 12.205 36.7269 11.3994C37.0806 10.5939 37.5744 9.89211 38.2084 9.29409C38.8424 8.69601 39.5862 8.23837 40.4397 7.92097C41.2932 7.59144 42.232 7.42668 43.2562 7.42668C44.3902 7.42668 45.4082 7.61589 46.3105 7.99421C47.225 8.37258 47.9931 8.92181 48.615 9.64191L46.7129 11.3994C46.2495 10.9113 45.7436 10.5512 45.1949 10.3193C44.6462 10.0752 44.0488 9.95315 43.4026 9.95315C42.7807 9.95315 42.2138 10.0508 41.7017 10.2461C41.1896 10.4413 40.7444 10.7221 40.3665 11.0882C40.0008 11.4544 39.7142 11.8876 39.5069 12.3881C39.3119 12.8885 39.2143 13.4438 39.2143 14.0541C39.2143 14.6521 39.3119 15.2013 39.5069 15.7018C39.7142 16.2022 40.0008 16.6416 40.3665 17.0199C40.7444 17.3861 41.1834 17.6668 41.6834 17.8621C42.1955 18.0573 42.7563 18.155 43.366 18.155C43.9512 18.155 44.5182 18.0634 45.0669 17.8804C45.6277 17.6851 46.1703 17.3616 46.6946 16.9101L48.3772 19.0521C47.6823 19.5769 46.8714 19.9796 45.9448 20.2604C45.0303 20.5411 44.1158 20.6814 43.2013 20.6814ZM45.6704 18.6676V13.8527H48.3772V19.0521L45.6704 18.6676ZM50.1967 20.4618V6.87744H53.0498V20.4618H50.1967ZM59.6483 20.6082C58.5997 20.6082 57.6669 20.3886 56.85 19.9491C56.0453 19.5098 55.4052 18.9118 54.9297 18.155C54.4663 17.3861 54.2346 16.5134 54.2346 15.537C54.2346 14.5484 54.4663 13.6758 54.9297 12.919C55.4052 12.1501 56.0453 11.5521 56.85 11.1249C57.6669 10.6854 58.5997 10.4658 59.6483 10.4658C60.6847 10.4658 61.6114 10.6854 62.4284 11.1249C63.2454 11.5521 63.885 12.1439 64.3486 12.9007C64.8121 13.6574 65.0436 14.5362 65.0436 15.537C65.0436 16.5134 64.8121 17.3861 64.3486 18.155C63.885 18.9118 63.2454 19.5098 62.4284 19.9491C61.6114 20.3886 60.6847 20.6082 59.6483 20.6082ZM59.6483 18.2649C60.1239 18.2649 60.5506 18.155 60.9286 17.9353C61.3065 17.7156 61.6052 17.4044 61.8248 17.0016C62.0442 16.5867 62.1539 16.0984 62.1539 15.537C62.1539 14.9633 62.0442 14.4751 61.8248 14.0724C61.6052 13.6696 61.3065 13.3584 60.9286 13.1387C60.5506 12.919 60.1239 12.8091 59.6483 12.8091C59.1728 12.8091 58.746 12.919 58.3681 13.1387C57.9901 13.3584 57.6852 13.6696 57.4536 14.0724C57.2341 14.4751 57.1244 14.9633 57.1244 15.537C57.1244 16.0984 57.2341 16.5867 57.4536 17.0016C57.6852 17.4044 57.9901 17.7156 58.3681 17.9353C58.746 18.155 59.1728 18.2649 59.6483 18.2649ZM72.0355 20.6082C71.1694 20.6082 70.4258 20.4251 69.8042 20.059C69.182 19.6929 68.7066 19.1375 68.3774 18.393C68.0483 17.6362 67.8834 16.6842 67.8834 15.537C67.8834 14.3775 68.0539 13.4255 68.3955 12.681C68.7489 11.9365 69.2367 11.3811 69.859 11.015C70.4806 10.6489 71.2061 10.4658 72.0355 10.4658C72.962 10.4658 73.7908 10.6732 74.5225 11.0882C75.2661 11.5032 75.8516 12.089 76.2784 12.8458C76.7171 13.6025 76.9367 14.4996 76.9367 15.537C76.9367 16.5622 76.7171 17.4532 76.2784 18.2099C75.8516 18.9667 75.2661 19.5586 74.5225 19.9858C73.7908 20.4007 72.962 20.6082 72.0355 20.6082ZM66.219 20.4618V6.87744H69.0725V12.6078L68.8895 15.5187L68.9443 18.4479V20.4618H66.219ZM71.5414 18.2649C72.0168 18.2649 72.4375 18.155 72.8033 17.9353C73.1816 17.7156 73.4803 17.4044 73.6993 17.0016C73.9314 16.5867 74.0471 16.0984 74.0471 15.537C74.0471 14.9633 73.9314 14.4751 73.6993 14.0724C73.4803 13.6696 73.1816 13.3584 72.8033 13.1387C72.4375 12.919 72.0168 12.8091 71.5414 12.8091C71.0661 12.8091 70.6392 12.919 70.2609 13.1387C69.8832 13.3584 69.5846 13.6696 69.3649 14.0724C69.1453 14.4751 69.0358 14.9633 69.0358 15.537C69.0358 16.0984 69.1453 16.5867 69.3649 17.0016C69.5846 17.4044 69.8832 17.7156 70.2609 17.9353C70.6392 18.155 71.0661 18.2649 71.5414 18.2649ZM83.9896 20.4618V18.5394L83.8067 18.1184V14.6766C83.8067 14.0662 83.6182 13.5902 83.2398 13.2486C82.874 12.9068 82.3071 12.7359 81.5393 12.7359C81.0148 12.7359 80.4965 12.8213 79.9844 12.9922C79.4847 13.1509 79.0579 13.3706 78.7045 13.6513L77.6803 11.6558C78.2166 11.2774 78.8625 10.9845 79.6185 10.777C80.3745 10.5695 81.143 10.4658 81.9232 10.4658C83.4228 10.4658 84.5876 10.8198 85.4164 11.5276C86.2458 12.2355 86.6602 13.3401 86.6602 14.8413V20.4618H83.9896ZM80.9905 20.6082C80.2221 20.6082 79.5638 20.4801 79.015 20.2238C78.4668 19.9553 78.0462 19.5952 77.7531 19.1436C77.4606 18.6921 77.3144 18.1855 77.3144 17.6241C77.3144 17.0382 77.4544 16.5256 77.735 16.0862C78.0275 15.6469 78.4848 15.3051 79.1064 15.061C79.7286 14.8047 80.5394 14.6766 81.5393 14.6766H84.1545V16.3426H81.8498C81.1791 16.3426 80.7161 16.4524 80.4598 16.6721C80.2158 16.8918 80.0945 17.1664 80.0945 17.4959C80.0945 17.8621 80.2345 18.155 80.5151 18.3747C80.8076 18.5822 81.2039 18.6859 81.7036 18.6859C82.179 18.6859 82.6058 18.5761 82.9841 18.3564C83.3618 18.1245 83.6362 17.7889 83.8067 17.3494L84.246 18.6676C84.0388 19.3022 83.6605 19.7844 83.1123 20.1139C82.5635 20.4434 81.856 20.6082 80.9905 20.6082ZM88.5107 20.4618V6.87744H91.3636V20.4618H88.5107ZM93.4816 20.4618V7.64638H95.9319L103.486 16.8734H102.297V7.64638H105.223V20.4618H102.791L95.2189 11.2347H96.4079V20.4618H93.4816ZM112.001 20.6082C110.952 20.6082 110.02 20.3886 109.203 19.9491C108.399 19.5098 107.759 18.9118 107.283 18.155C106.819 17.3861 106.588 16.5134 106.588 15.537C106.588 14.5484 106.819 13.6758 107.283 12.919C107.759 12.1501 108.399 11.5521 109.203 11.1249C110.02 10.6854 110.952 10.4658 112.001 10.4658C113.037 10.4658 113.965 10.6854 114.782 11.1249C115.598 11.5521 116.238 12.1439 116.702 12.9007C117.165 13.6574 117.397 14.5362 117.397 15.537C117.397 16.5134 117.165 17.3861 116.702 18.155C116.238 18.9118 115.598 19.5098 114.782 19.9491C113.965 20.3886 113.037 20.6082 112.001 20.6082ZM112.001 18.2649C112.477 18.2649 112.904 18.155 113.282 17.9353C113.659 17.7156 113.958 17.4044 114.178 17.0016C114.398 16.5867 114.507 16.0984 114.507 15.537C114.507 14.9633 114.398 14.4751 114.178 14.0724C113.958 13.6696 113.659 13.3584 113.282 13.1387C112.904 12.919 112.477 12.8091 112.001 12.8091C111.526 12.8091 111.099 12.919 110.721 13.1387C110.344 13.3584 110.038 13.6696 109.807 14.0724C109.587 14.4751 109.478 14.9633 109.478 15.537C109.478 16.0984 109.587 16.5867 109.807 17.0016C110.038 17.4044 110.344 17.7156 110.721 17.9353C111.099 18.155 111.526 18.2649 112.001 18.2649ZM131.174 10.4658C131.954 10.4658 132.642 10.6245 133.241 10.9418C133.85 11.2469 134.325 11.7229 134.667 12.3698C135.02 13.0044 135.198 13.8222 135.198 14.823V20.4618H132.344V15.2624C132.344 14.469 132.18 13.8832 131.851 13.5049C131.522 13.1265 131.058 12.9373 130.461 12.9373C130.045 12.9373 129.674 13.035 129.345 13.2302C129.016 13.4133 128.76 13.6941 128.577 14.0724C128.394 14.4507 128.302 14.9329 128.302 15.5187V20.4618H125.45V15.2624C125.45 14.469 125.285 13.8832 124.955 13.5049C124.638 13.1265 124.181 12.9373 123.584 12.9373C123.168 12.9373 122.798 13.035 122.468 13.2302C122.139 13.4133 121.883 13.6941 121.7 14.0724C121.517 14.4507 121.426 14.9329 121.426 15.5187V20.4618H118.573V10.6122H121.298V13.3034L120.786 12.5162C121.127 11.845 121.609 11.3384 122.231 10.9967C122.864 10.6428 123.584 10.4658 124.389 10.4658C125.29 10.4658 126.077 10.6976 126.748 11.1614C127.43 11.613 127.882 12.3087 128.101 13.2486L127.095 12.9739C127.424 12.205 127.949 11.5947 128.668 11.1431C129.4 10.6915 130.235 10.4658 131.174 10.4658ZM143.059 20.4618V18.5394L142.876 18.1184V14.6766C142.876 14.0662 142.687 13.5902 142.309 13.2486C141.943 12.9068 141.377 12.7359 140.608 12.7359C140.083 12.7359 139.566 12.8213 139.054 12.9922C138.554 13.1509 138.126 13.3706 137.773 13.6513L136.749 11.6558C137.285 11.2774 137.931 10.9845 138.688 10.777C139.443 10.5695 140.211 10.4658 140.992 10.4658C142.492 10.4658 143.656 10.8198 144.485 11.5276C145.314 12.2355 145.729 13.3401 145.729 14.8413V20.4618H143.059ZM140.059 20.6082C139.291 20.6082 138.633 20.4801 138.084 20.2238C137.536 19.9553 137.115 19.5952 136.823 19.1436C136.529 18.6921 136.383 18.1855 136.383 17.6241C136.383 17.0382 136.523 16.5256 136.804 16.0862C137.096 15.6469 137.554 15.3051 138.176 15.061C138.797 14.8047 139.608 14.6766 140.608 14.6766H143.223V16.3426H140.919C140.248 16.3426 139.785 16.4524 139.529 16.6721C139.285 16.8918 139.163 17.1664 139.163 17.4959C139.163 17.8621 139.303 18.155 139.584 18.3747C139.876 18.5822 140.273 18.6859 140.773 18.6859C141.248 18.6859 141.674 18.5761 142.053 18.3564C142.431 18.1245 142.705 17.7889 142.876 17.3494L143.315 18.6676C143.108 19.3022 142.73 19.7844 142.181 20.1139C141.632 20.4434 140.924 20.6082 140.059 20.6082ZM151.875 20.6082C150.949 20.6082 150.114 20.4007 149.37 19.9858C148.627 19.5586 148.035 18.9667 147.596 18.2099C147.169 17.4532 146.955 16.5622 146.955 15.537C146.955 14.4996 147.169 13.6025 147.596 12.8458C148.035 12.089 148.627 11.5032 149.37 11.0882C150.114 10.6732 150.949 10.4658 151.875 10.4658C152.705 10.4658 153.43 10.6489 154.052 11.015C154.673 11.3811 155.156 11.9365 155.497 12.681C155.839 13.4255 156.009 14.3775 156.009 15.537C156.009 16.6842 155.844 17.6362 155.515 18.393C155.186 19.1375 154.71 19.6929 154.089 20.059C153.479 20.4251 152.741 20.6082 151.875 20.6082ZM152.369 18.2649C152.833 18.2649 153.254 18.155 153.631 17.9353C154.01 17.7156 154.308 17.4044 154.527 17.0016C154.76 16.5867 154.875 16.0984 154.875 15.537C154.875 14.9633 154.76 14.4751 154.527 14.0724C154.308 13.6696 154.01 13.3584 153.631 13.1387C153.254 12.919 152.833 12.8091 152.369 12.8091C151.894 12.8091 151.468 12.919 151.089 13.1387C150.711 13.3584 150.407 13.6696 150.175 14.0724C149.955 14.4751 149.846 14.9633 149.846 15.537C149.846 16.0984 149.955 16.5867 150.175 17.0016C150.407 17.4044 150.711 17.7156 151.089 17.9353C151.468 18.155 151.894 18.2649 152.369 18.2649ZM154.948 20.4618V18.4479L155.003 15.5187L154.82 12.6078V6.87744H157.673V20.4618H154.948Z" fill="#0B3B2D"/>
<path fill-rule="evenodd" clip-rule="evenodd" d="M13.9859 0C21.7102 0 27.9719 6.26802 27.9719 14C27.9719 21.732 21.7102 28 13.9859 28C6.26173 28 0 21.732 0 14C0 6.26802 6.26173 0 13.9859 0ZM13.4804 1.04761C11.8849 1.27238 10.3657 2.55575 9.18624 4.70218C8.84414 5.32478 8.53546 6.01262 8.26647 6.75534C9.87012 6.35189 11.6317 6.11409 13.4804 6.07731V1.04761ZM7.08444 7.09159C7.41894 6.04071 7.82811 5.07388 8.30038 4.21445C8.88502 3.15041 9.57886 2.23157 10.3606 1.52584C6.10962 2.76166 2.75889 6.11575 1.52431 10.371C2.22932 9.58844 3.14726 8.89392 4.21024 8.30872C5.06879 7.83602 6.03463 7.42635 7.08444 7.09159ZM6.7485 8.27475C6.34555 9.88002 6.10796 11.6434 6.07121 13.4939H1.04656C1.27111 11.8968 2.55319 10.376 4.69746 9.19551C5.31944 8.85304 6.00659 8.54404 6.7485 8.27475ZM7.08251 13.4939C7.12426 11.4744 7.41465 9.57836 7.89519 7.90316C9.56878 7.42212 11.463 7.13135 13.4804 7.08954V9.27559C12.7277 11.2043 11.1927 12.7409 9.26576 13.4939H7.08251ZM6.07121 14.5061H1.04656C1.27111 16.1032 2.55319 17.6239 4.69746 18.8045C5.31944 19.147 6.00659 19.4559 6.7485 19.7253C6.34555 18.12 6.10796 16.3566 6.07121 14.5061ZM7.89519 20.0969C7.41465 18.4216 7.12426 16.5256 7.08251 14.5061H9.26576C11.1927 15.2591 12.7279 16.7957 13.4804 18.7245V20.9105C11.463 20.8687 9.56878 20.5778 7.89519 20.0969ZM7.08444 20.9085C6.03463 20.5737 5.06879 20.164 4.21024 19.6913C3.14726 19.1061 2.22932 18.4115 1.52431 17.629C2.75889 21.8842 6.10962 25.2383 10.3606 26.4741C9.57886 25.7684 8.88502 24.8496 8.30038 23.7854C7.82811 22.9261 7.41894 21.9593 7.08444 20.9085ZM13.4804 26.9524C11.8849 26.7276 10.3657 25.4442 9.18624 23.2978C8.84414 22.6753 8.53546 21.9873 8.26647 21.2447C9.87012 21.6481 11.6317 21.8859 13.4804 21.9227V26.9524ZM17.6113 26.4741C18.393 25.7684 19.087 24.8496 19.6716 23.7854C20.1438 22.9261 20.553 21.9593 20.8875 20.9085C21.9373 20.5737 22.9031 20.164 23.7617 19.6913C24.8246 19.1061 25.7426 18.4115 26.4476 17.629C25.213 21.8842 21.8623 25.2383 17.6113 26.4741ZM19.7055 21.2447C19.4364 21.9873 19.1277 22.6753 18.7856 23.2978C17.6064 25.4442 16.0871 26.7276 14.4915 26.9524V21.9227C16.3402 21.8859 18.1018 21.6481 19.7055 21.2447ZM21.2234 19.7253C21.9653 19.4559 22.6525 19.147 23.2745 18.8045C25.4187 17.6239 26.7008 16.1032 26.9253 14.5061H21.9007C21.8639 16.3566 21.6264 18.12 21.2234 19.7253ZM20.8895 14.5061C20.8478 16.5256 20.5572 18.4216 20.0767 20.0969C18.4032 20.5778 16.509 20.8687 14.4915 20.9105V18.7261C15.2438 16.7966 16.7793 15.2594 18.7067 14.5061H20.8895ZM21.9007 13.4939H26.9253C26.7008 11.8968 25.4187 10.376 23.2745 9.19551C22.6525 8.85304 21.9653 8.54404 21.2234 8.27475C21.6264 9.88002 21.8639 11.6434 21.9007 13.4939ZM20.0767 7.90316C20.5572 9.57836 20.8478 11.4744 20.8895 13.4939H18.7067C16.7793 12.7406 15.2438 11.2034 14.4915 9.27397V7.08954C16.509 7.13135 18.4032 7.42212 20.0767 7.90316ZM20.8875 7.09159C21.9373 7.42635 22.9031 7.83602 23.7617 8.30872C24.8246 8.89392 25.7426 9.58844 26.4476 10.371C25.213 6.11575 21.8623 2.76166 17.6113 1.52584C18.393 2.23157 19.087 3.15041 19.6716 4.21445C20.1438 5.07388 20.553 6.04071 20.8875 7.09159ZM14.4915 1.04761C16.0871 1.27238 17.6064 2.55575 18.7856 4.70218C19.1277 5.32479 19.4364 6.01262 19.7055 6.75534C18.1018 6.35189 16.3402 6.11409 14.4915 6.07731V1.04761Z" fill="#0B3B2D"/>
</g>
<defs>
<clipPath id="clip0_226_285">
<rect width="165.511" height="28" fill="white"/>
</clipPath>
</defs>
</svg>
