<svg width="166" height="28" viewBox="0 0 166 28" fill="none" xmlns="http://www.w3.org/2000/svg">
<g clip-path="url(#clip0_668_11425)">
<path d="M162.978 12.0226C164.236 12.0226 165.253 11.0026 165.253 9.74457C165.253 8.4865 164.236 7.46667 162.978 7.46667C161.722 7.46667 160.703 8.4865 160.703 9.74457C160.703 11.0026 161.722 12.0226 162.978 12.0226Z" fill="#0B3B2D"/>
<path d="M43.2013 20.6812C42.1893 20.6812 41.2566 20.5226 40.4031 20.2052C39.5618 19.8757 38.8241 19.4119 38.1901 18.8138C37.5682 18.2158 37.0806 17.514 36.7269 16.7084C36.3856 15.9029 36.2148 15.018 36.2148 14.0538C36.2148 13.0897 36.3856 12.2047 36.7269 11.3992C37.0806 10.5937 37.5744 9.89186 38.2084 9.29385C38.8424 8.69577 39.5862 8.23812 40.4397 7.92073C41.2932 7.5912 42.232 7.42643 43.2562 7.42643C44.3902 7.42643 45.4082 7.61565 46.3105 7.99396C47.225 8.37233 47.9931 8.92157 48.615 9.64167L46.7129 11.3992C46.2495 10.9111 45.7436 10.551 45.1949 10.3191C44.6462 10.075 44.0488 9.9529 43.4026 9.9529C42.7807 9.9529 42.2138 10.0505 41.7017 10.2458C41.1896 10.4411 40.7444 10.7218 40.3665 11.088C40.0008 11.4541 39.7142 11.8874 39.5069 12.3878C39.3119 12.8883 39.2143 13.4436 39.2143 14.0538C39.2143 14.6519 39.3119 15.2011 39.5069 15.7016C39.7142 16.2019 40.0008 16.6414 40.3665 17.0197C40.7444 17.3858 41.1834 17.6666 41.6834 17.8618C42.1955 18.0571 42.7563 18.1548 43.366 18.1548C43.9512 18.1548 44.5182 18.0632 45.0669 17.8801C45.6277 17.6849 46.1703 17.3614 46.6946 16.9098L48.3772 19.0518C47.6823 19.5766 46.8714 19.9794 45.9448 20.2601C45.0303 20.5409 44.1158 20.6812 43.2013 20.6812ZM45.6704 18.6674V13.8524H48.3772V19.0518L45.6704 18.6674ZM50.1967 20.4616V6.8772H53.0498V20.4616H50.1967ZM59.6483 20.608C58.5997 20.608 57.6669 20.3883 56.85 19.9489C56.0453 19.5096 55.4052 18.9115 54.9297 18.1548C54.4663 17.3858 54.2346 16.5132 54.2346 15.5368C54.2346 14.5481 54.4663 13.6755 54.9297 12.9188C55.4052 12.1498 56.0453 11.5518 56.85 11.1246C57.6669 10.6852 58.5997 10.4656 59.6483 10.4656C60.6847 10.4656 61.6114 10.6852 62.4284 11.1246C63.2454 11.5518 63.885 12.1437 64.3486 12.9004C64.8121 13.6572 65.0436 14.5359 65.0436 15.5368C65.0436 16.5132 64.8121 17.3858 64.3486 18.1548C63.885 18.9115 63.2454 19.5096 62.4284 19.9489C61.6114 20.3883 60.6847 20.608 59.6483 20.608ZM59.6483 18.2646C60.1239 18.2646 60.5506 18.1547 60.9286 17.9351C61.3065 17.7154 61.6052 17.4041 61.8248 17.0014C62.0442 16.5864 62.1539 16.0982 62.1539 15.5368C62.1539 14.9631 62.0442 14.4749 61.8248 14.0721C61.6052 13.6694 61.3065 13.3581 60.9286 13.1384C60.5506 12.9187 60.1239 12.8089 59.6483 12.8089C59.1728 12.8089 58.746 12.9187 58.3681 13.1384C57.9901 13.3581 57.6852 13.6694 57.4536 14.0721C57.2341 14.4749 57.1244 14.9631 57.1244 15.5368C57.1244 16.0982 57.2341 16.5864 57.4536 17.0014C57.6852 17.4041 57.9901 17.7154 58.3681 17.9351C58.746 18.1547 59.1728 18.2646 59.6483 18.2646ZM72.0355 20.608C71.1694 20.608 70.4258 20.4249 69.8042 20.0587C69.182 19.6926 68.7066 19.1372 68.3774 18.3928C68.0483 17.636 67.8834 16.684 67.8834 15.5368C67.8834 14.3772 68.0539 13.4252 68.3955 12.6807C68.7489 11.9363 69.2367 11.3809 69.859 11.0147C70.4806 10.6486 71.2061 10.4656 72.0355 10.4656C72.962 10.4656 73.7908 10.673 74.5225 11.088C75.2661 11.5029 75.8516 12.0887 76.2784 12.8456C76.7171 13.6023 76.9367 14.4994 76.9367 15.5368C76.9367 16.562 76.7171 17.4529 76.2784 18.2097C75.8516 18.9664 75.2661 19.5583 74.5225 19.9856C73.7908 20.4005 72.962 20.608 72.0355 20.608ZM66.219 20.4616V6.8772H69.0725V12.6076L68.8895 15.5184L68.9443 18.4477V20.4616H66.219ZM71.5414 18.2646C72.0168 18.2646 72.4375 18.1547 72.8033 17.9351C73.1816 17.7154 73.4803 17.4041 73.6993 17.0014C73.9314 16.5864 74.0471 16.0982 74.0471 15.5368C74.0471 14.9631 73.9314 14.4749 73.6993 14.0721C73.4803 13.6694 73.1816 13.3581 72.8033 13.1384C72.4375 12.9187 72.0168 12.8089 71.5414 12.8089C71.0661 12.8089 70.6392 12.9187 70.2609 13.1384C69.8832 13.3581 69.5846 13.6694 69.3649 14.0721C69.1453 14.4749 69.0358 14.9631 69.0358 15.5368C69.0358 16.0982 69.1453 16.5864 69.3649 17.0014C69.5846 17.4041 69.8832 17.7154 70.2609 17.9351C70.6392 18.1547 71.0661 18.2646 71.5414 18.2646ZM83.9896 20.4616V18.5392L83.8067 18.1181V14.6763C83.8067 14.066 83.6182 13.59 83.2398 13.2483C82.874 12.9066 82.3071 12.7357 81.5393 12.7357C81.0148 12.7357 80.4965 12.8211 79.9844 12.992C79.4847 13.1506 79.0579 13.3703 78.7045 13.6511L77.6803 11.6556C78.2166 11.2772 78.8625 10.9843 79.6185 10.7767C80.3745 10.5693 81.143 10.4656 81.9232 10.4656C83.4228 10.4656 84.5876 10.8195 85.4164 11.5274C86.2458 12.2352 86.6602 13.3398 86.6602 14.8411V20.4616H83.9896ZM80.9905 20.608C80.2221 20.608 79.5638 20.4798 79.015 20.2236C78.4668 19.9551 78.0462 19.5949 77.7531 19.1434C77.4606 18.6918 77.3144 18.1852 77.3144 17.6238C77.3144 17.038 77.4544 16.5254 77.735 16.086C78.0275 15.6466 78.4848 15.3049 79.1064 15.0607C79.7286 14.8044 80.5394 14.6763 81.5393 14.6763H84.1545V16.3423H81.8498C81.1791 16.3423 80.7161 16.4521 80.4598 16.6718C80.2158 16.8916 80.0945 17.1661 80.0945 17.4957C80.0945 17.8618 80.2345 18.1548 80.5151 18.3744C80.8076 18.5819 81.2039 18.6857 81.7036 18.6857C82.179 18.6857 82.6058 18.5758 82.9841 18.3561C83.3618 18.1243 83.6362 17.7886 83.8067 17.3492L84.246 18.6674C84.0388 19.302 83.6605 19.7841 83.1123 20.1137C82.5635 20.4432 81.856 20.608 80.9905 20.608ZM88.5107 20.4616V6.8772H91.3636V20.4616H88.5107ZM93.4816 20.4616V7.64614H95.9319L103.486 16.8732H102.297V7.64614H105.223V20.4616H102.791L95.2189 11.2344H96.4079V20.4616H93.4816ZM112.001 20.608C110.952 20.608 110.02 20.3883 109.203 19.9489C108.399 19.5096 107.759 18.9115 107.283 18.1548C106.819 17.3858 106.588 16.5132 106.588 15.5368C106.588 14.5481 106.819 13.6755 107.283 12.9188C107.759 12.1498 108.399 11.5518 109.203 11.1246C110.02 10.6852 110.952 10.4656 112.001 10.4656C113.037 10.4656 113.965 10.6852 114.782 11.1246C115.598 11.5518 116.238 12.1437 116.702 12.9004C117.165 13.6572 117.397 14.5359 117.397 15.5368C117.397 16.5132 117.165 17.3858 116.702 18.1548C116.238 18.9115 115.598 19.5096 114.782 19.9489C113.965 20.3883 113.037 20.608 112.001 20.608ZM112.001 18.2646C112.477 18.2646 112.904 18.1547 113.282 17.9351C113.659 17.7154 113.958 17.4041 114.178 17.0014C114.398 16.5864 114.507 16.0982 114.507 15.5368C114.507 14.9631 114.398 14.4749 114.178 14.0721C113.958 13.6694 113.659 13.3581 113.282 13.1384C112.904 12.9187 112.477 12.8089 112.001 12.8089C111.526 12.8089 111.099 12.9187 110.721 13.1384C110.344 13.3581 110.038 13.6694 109.807 14.0721C109.587 14.4749 109.478 14.9631 109.478 15.5368C109.478 16.0982 109.587 16.5864 109.807 17.0014C110.038 17.4041 110.344 17.7154 110.721 17.9351C111.099 18.1547 111.526 18.2646 112.001 18.2646ZM131.174 10.4656C131.954 10.4656 132.642 10.6242 133.241 10.9416C133.85 11.2466 134.325 11.7226 134.667 12.3696C135.02 13.0042 135.198 13.8219 135.198 14.8227V20.4616H132.344V15.2621C132.344 14.4687 132.18 13.8829 131.851 13.5046C131.522 13.1263 131.058 12.9371 130.461 12.9371C130.045 12.9371 129.674 13.0348 129.345 13.23C129.016 13.4131 128.76 13.6938 128.577 14.0721C128.394 14.4505 128.302 14.9326 128.302 15.5184V20.4616H125.45V15.2621C125.45 14.4687 125.285 13.8829 124.955 13.5046C124.638 13.1263 124.181 12.9371 123.584 12.9371C123.168 12.9371 122.798 13.0348 122.468 13.23C122.139 13.4131 121.883 13.6938 121.7 14.0721C121.517 14.4505 121.426 14.9326 121.426 15.5184V20.4616H118.573V10.612H121.298V13.3032L120.786 12.516C121.127 11.8448 121.609 11.3382 122.231 10.9964C122.864 10.6425 123.584 10.4656 124.389 10.4656C125.29 10.4656 126.077 10.6974 126.748 11.1612C127.43 11.6127 127.882 12.3085 128.101 13.2483L127.095 12.9737C127.424 12.2047 127.949 11.5945 128.668 11.1429C129.4 10.6913 130.235 10.4656 131.174 10.4656ZM143.059 20.4616V18.5392L142.876 18.1181V14.6763C142.876 14.066 142.687 13.59 142.309 13.2483C141.943 12.9066 141.377 12.7357 140.608 12.7357C140.083 12.7357 139.566 12.8211 139.054 12.992C138.554 13.1506 138.126 13.3703 137.773 13.6511L136.749 11.6556C137.285 11.2772 137.931 10.9843 138.688 10.7767C139.443 10.5693 140.211 10.4656 140.992 10.4656C142.492 10.4656 143.656 10.8195 144.485 11.5274C145.314 12.2352 145.729 13.3398 145.729 14.8411V20.4616H143.059ZM140.059 20.608C139.291 20.608 138.633 20.4798 138.084 20.2236C137.536 19.9551 137.115 19.5949 136.823 19.1434C136.529 18.6918 136.383 18.1852 136.383 17.6238C136.383 17.038 136.523 16.5254 136.804 16.086C137.096 15.6466 137.554 15.3049 138.176 15.0607C138.797 14.8044 139.608 14.6763 140.608 14.6763H143.223V16.3423H140.919C140.248 16.3423 139.785 16.4521 139.529 16.6718C139.285 16.8916 139.163 17.1661 139.163 17.4957C139.163 17.8618 139.303 18.1548 139.584 18.3744C139.876 18.5819 140.273 18.6857 140.773 18.6857C141.248 18.6857 141.674 18.5758 142.053 18.3561C142.431 18.1243 142.705 17.7886 142.876 17.3492L143.315 18.6674C143.108 19.302 142.73 19.7841 142.181 20.1137C141.632 20.4432 140.924 20.608 140.059 20.608ZM151.875 20.608C150.949 20.608 150.114 20.4005 149.37 19.9856C148.627 19.5583 148.035 18.9664 147.596 18.2097C147.169 17.4529 146.955 16.562 146.955 15.5368C146.955 14.4994 147.169 13.6023 147.596 12.8456C148.035 12.0887 148.627 11.5029 149.37 11.088C150.114 10.673 150.949 10.4656 151.875 10.4656C152.705 10.4656 153.43 10.6486 154.052 11.0147C154.673 11.3809 155.156 11.9363 155.497 12.6807C155.839 13.4252 156.009 14.3772 156.009 15.5368C156.009 16.684 155.844 17.636 155.515 18.3928C155.186 19.1372 154.71 19.6926 154.089 20.0587C153.479 20.4249 152.741 20.608 151.875 20.608ZM152.369 18.2646C152.833 18.2646 153.254 18.1547 153.631 17.9351C154.01 17.7154 154.308 17.4041 154.527 17.0014C154.76 16.5864 154.875 16.0982 154.875 15.5368C154.875 14.9631 154.76 14.4749 154.527 14.0721C154.308 13.6694 154.01 13.3581 153.631 13.1384C153.254 12.9187 152.833 12.8089 152.369 12.8089C151.894 12.8089 151.468 12.9187 151.089 13.1384C150.711 13.3581 150.407 13.6694 150.175 14.0721C149.955 14.4749 149.846 14.9631 149.846 15.5368C149.846 16.0982 149.955 16.5864 150.175 17.0014C150.407 17.4041 150.711 17.7154 151.089 17.9351C151.468 18.1547 151.894 18.2646 152.369 18.2646ZM154.948 20.4616V18.4477L155.003 15.5184L154.82 12.6076V6.8772H157.673V20.4616H154.948Z" fill="#0B3B2D"/>
<path fill-rule="evenodd" clip-rule="evenodd" d="M13.9859 0C21.7102 0 27.9719 6.26802 27.9719 14C27.9719 21.732 21.7102 28 13.9859 28C6.26173 28 0 21.732 0 14C0 6.26802 6.26173 0 13.9859 0ZM13.4804 1.04761C11.8849 1.27238 10.3657 2.55575 9.18624 4.70218C8.84414 5.32478 8.53546 6.01262 8.26647 6.75534C9.87012 6.35189 11.6317 6.11409 13.4804 6.07731V1.04761ZM7.08444 7.09159C7.41894 6.04071 7.82812 5.07388 8.30038 4.21445C8.88502 3.15041 9.57886 2.23157 10.3606 1.52584C6.10962 2.76166 2.75889 6.11575 1.52431 10.371C2.22932 9.58844 3.14726 8.89392 4.21024 8.30872C5.06879 7.83602 6.03463 7.42635 7.08444 7.09159ZM6.7485 8.27475C6.34555 9.88002 6.10796 11.6434 6.07121 13.4939H1.04656C1.27111 11.8968 2.55319 10.376 4.69746 9.19551C5.31944 8.85304 6.00659 8.54404 6.7485 8.27475ZM7.08251 13.4939C7.12426 11.4744 7.41465 9.57836 7.89519 7.90316C9.56878 7.42212 11.463 7.13135 13.4804 7.08954V9.27559C12.7277 11.2043 11.1927 12.7409 9.26576 13.4939H7.08251ZM6.07121 14.5061H1.04656C1.27111 16.1032 2.55319 17.6239 4.69746 18.8045C5.31944 19.147 6.00659 19.4559 6.7485 19.7253C6.34555 18.12 6.10796 16.3566 6.07121 14.5061ZM7.89519 20.0969C7.41465 18.4216 7.12426 16.5256 7.08251 14.5061H9.26576C11.1927 15.2591 12.7279 16.7957 13.4804 18.7245V20.9105C11.463 20.8687 9.56878 20.5778 7.89519 20.0969ZM7.08444 20.9085C6.03463 20.5737 5.06879 20.164 4.21024 19.6913C3.14726 19.1061 2.22932 18.4115 1.52431 17.629C2.75889 21.8842 6.10962 25.2383 10.3606 26.4741C9.57886 25.7684 8.88502 24.8496 8.30038 23.7854C7.82812 22.9261 7.41894 21.9593 7.08444 20.9085ZM13.4804 26.9524C11.8849 26.7276 10.3657 25.4442 9.18624 23.2978C8.84414 22.6753 8.53546 21.9873 8.26647 21.2447C9.87012 21.6481 11.6317 21.8859 13.4804 21.9227V26.9524ZM17.6113 26.4741C18.393 25.7684 19.087 24.8496 19.6716 23.7854C20.1438 22.9261 20.553 21.9593 20.8875 20.9085C21.9373 20.5737 22.9031 20.164 23.7617 19.6913C24.8246 19.1061 25.7426 18.4115 26.4476 17.629C25.213 21.8842 21.8623 25.2383 17.6113 26.4741ZM19.7055 21.2447C19.4364 21.9873 19.1277 22.6753 18.7856 23.2978C17.6064 25.4442 16.0871 26.7276 14.4915 26.9524V21.9227C16.3402 21.8859 18.1018 21.6481 19.7055 21.2447ZM21.2234 19.7253C21.9653 19.4559 22.6525 19.147 23.2745 18.8045C25.4187 17.6239 26.7008 16.1032 26.9253 14.5061H21.9007C21.8639 16.3566 21.6264 18.12 21.2234 19.7253ZM20.8895 14.5061C20.8478 16.5256 20.5572 18.4216 20.0767 20.0969C18.4032 20.5778 16.509 20.8687 14.4915 20.9105V18.7261C15.2438 16.7966 16.7793 15.2594 18.7067 14.5061H20.8895ZM21.9007 13.4939H26.9253C26.7008 11.8968 25.4187 10.376 23.2745 9.19551C22.6525 8.85304 21.9653 8.54404 21.2234 8.27475C21.6264 9.88002 21.8639 11.6434 21.9007 13.4939ZM20.0767 7.90316C20.5572 9.57836 20.8478 11.4744 20.8895 13.4939H18.7067C16.7793 12.7406 15.2438 11.2034 14.4915 9.27397V7.08954C16.509 7.13135 18.4032 7.42212 20.0767 7.90316ZM20.8875 7.09159C21.9373 7.42635 22.9031 7.83602 23.7617 8.30872C24.8246 8.89392 25.7426 9.58844 26.4476 10.371C25.213 6.11575 21.8623 2.76166 17.6113 1.52584C18.393 2.23157 19.087 3.15041 19.6716 4.21445C20.1438 5.07388 20.553 6.04071 20.8875 7.09159ZM14.4915 1.04761C16.0871 1.27238 17.6064 2.55575 18.7856 4.70218C19.1277 5.32479 19.4364 6.01262 19.7055 6.75534C18.1018 6.35189 16.3402 6.11409 14.4915 6.07731V1.04761Z" fill="#0B3B2D"/>
</g>
<defs>
<clipPath id="clip0_668_11425">
<rect width="165.511" height="28" fill="white"/>
</clipPath>
</defs>
</svg>
