<svg width="644" height="927" viewBox="0 0 644 927" fill="none" xmlns="http://www.w3.org/2000/svg">
<g filter="url(#filter0_d_681_11431)">
<path d="M278.524 8.66823C226.791 13.6016 174.124 34.6682 129.857 68.1349C115.324 79.2016 93.7239 100.402 81.3239 115.735C45.3239 160.535 25.0572 208.535 17.8572 266.402C11.7239 316.402 20.7906 368.668 44.9239 421.868C59.5906 454.402 69.1906 469.735 146.657 583.735C219.591 691.068 254.657 760.135 274.391 835.868C277.191 846.535 280.391 856.935 281.591 859.202C292.124 879.468 323.591 879.468 334.124 859.202C335.324 856.935 338.524 846.535 341.324 835.868C361.057 760.135 396.124 691.068 469.057 583.735C546.524 469.735 556.124 454.402 570.791 421.868C594.924 368.668 603.991 316.402 597.857 266.402C589.191 196.802 559.991 137.868 510.391 89.7349C464.124 44.9349 402.391 15.6016 340.924 9.06826C329.457 7.86826 289.324 7.60157 278.524 8.66823ZM337.057 177.068C380.657 187.468 415.324 220.535 428.657 264.402C431.991 275.468 432.391 278.268 432.391 299.068C432.391 320.002 432.124 322.668 428.791 333.468C421.591 356.535 410.924 374.002 393.591 390.535C377.191 406.135 357.724 416.668 335.057 422.002C319.724 425.468 293.857 425.202 277.991 421.335C233.191 410.135 197.991 375.335 185.724 329.602C183.724 322.268 183.191 315.868 183.324 298.402C183.324 278.402 183.724 275.335 186.924 264.668C207.057 199.202 271.724 161.468 337.057 177.068Z" fill="#00825C"/>
<ellipse cx="301.5" cy="311.5" rx="248.5" ry="215.5" fill="#00825C"/>
<path fill-rule="evenodd" clip-rule="evenodd" d="M308 69C435.579 69 539 169.736 539 294C539 418.264 435.579 519 308 519C180.422 519 77 418.264 77 294C77 169.736 180.422 69 308 69ZM299.65 85.8366C273.299 89.449 248.205 110.075 228.725 144.571C223.075 154.577 217.977 165.631 213.534 177.568C240.021 171.084 269.116 167.262 299.65 166.671V85.8366ZM194.011 182.972C199.536 166.083 206.294 150.545 214.094 136.732C223.75 119.632 235.21 104.864 248.121 93.5224C177.91 113.384 122.567 167.289 102.176 235.677C113.821 223.1 128.982 211.938 146.539 202.533C160.719 194.936 176.672 188.352 194.011 182.972ZM188.462 201.987C181.807 227.786 177.883 256.126 177.276 285.867H94.2856C97.9943 260.198 119.17 235.757 154.586 216.785C164.859 211.281 176.208 206.315 188.462 201.987ZM193.979 285.867C194.668 253.41 199.465 222.938 207.402 196.015C235.044 188.284 266.33 183.611 299.65 182.939V218.072C287.219 249.069 261.865 273.764 230.039 285.867H193.979ZM177.276 302.133H94.2856C97.9943 327.802 119.17 352.242 154.586 371.215C164.859 376.719 176.208 381.684 188.462 386.013C181.807 360.214 177.883 331.874 177.276 302.133ZM207.402 391.986C199.465 365.062 194.668 334.59 193.979 302.133H230.039C261.865 314.236 287.221 338.931 299.65 369.929V405.062C266.33 404.39 235.044 399.715 207.402 391.986ZM194.011 405.029C176.672 399.648 160.719 393.064 146.539 385.468C128.982 376.063 113.821 364.899 102.176 352.323C122.567 420.711 177.91 474.616 248.121 494.477C235.21 483.135 223.75 468.368 214.094 451.266C206.294 437.455 199.536 421.918 194.011 405.029ZM299.65 502.163C273.299 498.551 248.205 477.925 228.725 443.429C223.075 433.424 217.977 422.368 213.534 410.432C240.021 416.916 269.116 420.737 299.65 421.329V502.163ZM367.879 494.477C380.79 483.135 392.252 468.368 401.907 451.266C409.706 437.455 416.465 421.918 421.99 405.029C439.33 399.648 455.281 393.064 469.462 385.468C487.018 376.063 502.181 364.899 513.823 352.323C493.433 420.711 438.09 474.616 367.879 494.477ZM402.467 410.432C398.022 422.368 392.925 433.424 387.275 443.429C367.798 477.925 342.703 498.551 316.35 502.163V421.329C346.885 420.737 375.98 416.916 402.467 410.432ZM427.538 386.013C439.791 381.684 451.142 376.719 461.415 371.215C496.83 352.242 518.006 327.802 521.714 302.133H438.725C438.117 331.874 434.194 360.214 427.538 386.013ZM422.023 302.133C421.335 334.59 416.534 365.062 408.599 391.986C380.957 399.715 349.672 404.39 316.35 405.062V369.955C328.776 338.945 354.136 314.24 385.972 302.133H422.023ZM438.725 285.867H521.714C518.006 260.198 496.83 235.757 461.415 216.785C451.142 211.281 439.791 206.315 427.538 201.987C434.194 227.786 438.117 256.126 438.725 285.867ZM408.599 196.015C416.534 222.938 421.335 253.41 422.023 285.867H385.972C354.136 273.76 328.776 249.055 316.35 218.046V182.939C349.672 183.611 380.957 188.284 408.599 196.015ZM421.99 182.972C439.33 188.352 455.281 194.936 469.462 202.533C487.018 211.938 502.181 223.1 513.823 235.677C493.433 167.289 438.09 113.384 367.879 93.5224C380.79 104.864 392.252 119.632 401.907 136.732C409.706 150.545 416.465 166.083 421.99 182.972ZM316.35 85.8366C342.703 89.449 367.798 110.075 387.275 144.571C392.925 154.577 398.022 165.631 402.467 177.568C375.98 171.084 346.885 167.262 316.35 166.671V85.8366Z" fill="white"/>
</g>
<defs>
<filter id="filter0_d_681_11431" x="0" y="0" width="643.715" height="926.402" filterUnits="userSpaceOnUse" color-interpolation-filters="sRGB">
<feFlood flood-opacity="0" result="BackgroundImageFix"/>
<feColorMatrix in="SourceAlpha" type="matrix" values="0 0 0 0 0 0 0 0 0 0 0 0 0 0 0 0 0 0 127 0" result="hardAlpha"/>
<feOffset dx="14" dy="22"/>
<feGaussianBlur stdDeviation="15"/>
<feComposite in2="hardAlpha" operator="out"/>
<feColorMatrix type="matrix" values="0 0 0 0 0 0 0 0 0 0 0 0 0 0 0 0 0 0 0.25 0"/>
<feBlend mode="normal" in2="BackgroundImageFix" result="effect1_dropShadow_681_11431"/>
<feBlend mode="normal" in="SourceGraphic" in2="effect1_dropShadow_681_11431" result="shape"/>
</filter>
</defs>
</svg>
