<svg width="584" height="867" viewBox="0 0 584 867" fill="none" xmlns="http://www.w3.org/2000/svg">
<path d="M262.524 0.668232C210.791 5.60157 158.124 26.6682 113.857 60.1349C99.3239 71.2016 77.7239 92.4016 65.3239 107.735C29.3239 152.535 9.05724 200.535 1.85724 258.402C-4.2761 308.402 4.79057 360.668 28.9239 413.868C43.5906 446.402 53.1906 461.735 130.657 575.735C203.591 683.068 238.657 752.135 258.391 827.868C261.191 838.535 264.391 848.935 265.591 851.202C276.124 871.468 307.591 871.468 318.124 851.202C319.324 848.935 322.524 838.535 325.324 827.868C345.057 752.135 380.124 683.068 453.057 575.735C530.524 461.735 540.124 446.402 554.791 413.868C578.924 360.668 587.991 308.402 581.857 258.402C573.191 188.802 543.991 129.868 494.391 81.7349C448.124 36.9349 386.391 7.60159 324.924 1.06826C313.457 -0.131744 273.324 -0.398435 262.524 0.668232ZM321.057 169.068C364.657 179.468 399.324 212.535 412.657 256.402C415.991 267.468 416.391 270.268 416.391 291.068C416.391 312.002 416.124 314.668 412.791 325.468C405.591 348.535 394.924 366.002 377.591 382.535C361.191 398.135 341.724 408.668 319.057 414.002C303.724 417.468 277.857 417.202 261.991 413.335C217.191 402.135 181.991 367.335 169.724 321.602C167.724 314.268 167.191 307.868 167.324 290.402C167.324 270.402 167.724 267.335 170.924 256.668C191.057 191.202 255.724 153.468 321.057 169.068Z" fill="#00825C"/>
<ellipse cx="285.5" cy="303.5" rx="248.5" ry="215.5" fill="#00825C"/>
<path fill-rule="evenodd" clip-rule="evenodd" d="M292 61C419.579 61 523 161.736 523 286C523 410.264 419.579 511 292 511C164.422 511 61 410.264 61 286C61 161.736 164.422 61 292 61ZM283.65 77.8366C257.299 81.449 232.205 102.075 212.725 136.571C207.075 146.577 201.977 157.631 197.534 169.568C224.021 163.084 253.116 159.262 283.65 158.671V77.8366ZM178.011 174.972C183.536 158.083 190.294 142.545 198.094 128.732C207.75 111.632 219.21 96.8645 232.121 85.5224C161.91 105.384 106.567 159.289 86.1764 227.677C97.8207 215.1 112.982 203.938 130.539 194.533C144.719 186.936 160.672 180.352 178.011 174.972ZM172.462 193.987C165.807 219.786 161.883 248.126 161.276 277.867H78.2856C81.9943 252.198 103.17 227.757 138.586 208.785C148.859 203.281 160.208 198.315 172.462 193.987ZM177.979 277.867C178.668 245.41 183.465 214.938 191.402 188.015C219.044 180.284 250.33 175.611 283.65 174.939V210.072C271.219 241.069 245.865 265.764 214.039 277.867H177.979ZM161.276 294.133H78.2856C81.9943 319.802 103.17 344.242 138.586 363.215C148.859 368.719 160.208 373.684 172.462 378.013C165.807 352.214 161.883 323.874 161.276 294.133ZM191.402 383.986C183.465 357.062 178.668 326.59 177.979 294.133H214.039C245.865 306.236 271.221 330.931 283.65 361.929V397.062C250.33 396.39 219.044 391.715 191.402 383.986ZM178.011 397.029C160.672 391.648 144.719 385.064 130.539 377.468C112.982 368.063 97.8207 356.899 86.1764 344.323C106.567 412.711 161.91 466.616 232.121 486.477C219.21 475.135 207.75 460.368 198.094 443.266C190.294 429.455 183.536 413.918 178.011 397.029ZM283.65 494.163C257.299 490.551 232.205 469.925 212.725 435.429C207.075 425.424 201.977 414.368 197.534 402.432C224.021 408.916 253.116 412.737 283.65 413.329V494.163ZM351.879 486.477C364.79 475.135 376.252 460.368 385.907 443.266C393.706 429.455 400.465 413.918 405.99 397.029C423.33 391.648 439.281 385.064 453.462 377.468C471.018 368.063 486.181 356.899 497.823 344.323C477.433 412.711 422.09 466.616 351.879 486.477ZM386.467 402.432C382.022 414.368 376.925 425.424 371.275 435.429C351.798 469.925 326.703 490.551 300.35 494.163V413.329C330.885 412.737 359.98 408.916 386.467 402.432ZM411.538 378.013C423.791 373.684 435.142 368.719 445.415 363.215C480.83 344.242 502.006 319.802 505.714 294.133H422.725C422.117 323.874 418.194 352.214 411.538 378.013ZM406.023 294.133C405.335 326.59 400.534 357.062 392.599 383.986C364.957 391.715 333.672 396.39 300.35 397.062V361.955C312.776 330.945 338.136 306.24 369.972 294.133H406.023ZM422.725 277.867H505.714C502.006 252.198 480.83 227.757 445.415 208.785C435.142 203.281 423.791 198.315 411.538 193.987C418.194 219.786 422.117 248.126 422.725 277.867ZM392.599 188.015C400.534 214.938 405.335 245.41 406.023 277.867H369.972C338.136 265.76 312.776 241.055 300.35 210.046V174.939C333.672 175.611 364.957 180.284 392.599 188.015ZM405.99 174.972C423.33 180.352 439.281 186.936 453.462 194.533C471.018 203.938 486.181 215.1 497.823 227.677C477.433 159.289 422.09 105.384 351.879 85.5224C364.79 96.8645 376.252 111.632 385.907 128.732C393.706 142.545 400.465 158.083 405.99 174.972ZM300.35 77.8366C326.703 81.449 351.798 102.075 371.275 136.571C376.925 146.577 382.022 157.631 386.467 169.568C359.98 163.084 330.885 159.262 300.35 158.671V77.8366Z" fill="white"/>
</svg>
