<svg width="584" height="867" viewBox="0 0 584 867" fill="none" xmlns="http://www.w3.org/2000/svg">
<path d="M263.297 8.6308L263.31 8.62952C268.221 8.14447 280.53 7.93427 293.422 8.01807C306.278 8.10168 318.786 8.47113 324.078 9.02344C383.695 15.3601 443.783 43.8701 488.819 87.476C537.09 134.319 565.47 191.563 573.917 259.376C579.845 307.701 571.127 358.49 547.505 410.563L547.501 410.572L547.497 410.58C533.179 442.342 524.042 457.04 446.44 571.239L452.551 575.391L446.44 571.239C373.293 678.887 337.653 748.83 317.585 825.84C316.21 831.077 314.741 836.233 313.479 840.328C312.846 842.38 312.279 844.12 311.813 845.45C311.363 846.733 311.115 847.314 311.063 847.435C311.054 847.456 311.051 847.463 311.054 847.459L311.039 847.485L311.025 847.512C307.368 854.548 299.914 858.402 291.857 858.402C283.801 858.402 276.346 854.548 272.689 847.512L272.675 847.485L272.661 847.459C272.663 847.463 272.66 847.456 272.651 847.435C272.6 847.314 272.352 846.733 271.902 845.45C271.435 844.12 270.868 842.38 270.236 840.328C268.973 836.233 267.504 831.077 266.129 825.84C266.129 825.839 266.129 825.838 266.128 825.837L263.297 8.6308ZM263.297 8.6308L263.283 8.63208M263.297 8.6308L263.283 8.63208M263.283 8.63208C213.13 13.4148 161.856 33.8778 118.69 66.5102M263.283 8.63208L118.69 66.5102M118.69 66.5102C104.711 77.1577 83.5808 97.8839 71.5518 112.756C36.4978 156.382 16.815 202.982 9.79646 259.386L118.69 66.5102ZM420.311 254.075L420.314 254.085L420.317 254.094C422.014 259.727 423.126 263.768 423.726 269.208C424.299 274.405 424.391 280.755 424.391 291.068C424.391 301.415 424.333 307.767 423.797 312.898C423.232 318.319 422.147 322.28 420.435 327.828L420.431 327.84L420.427 327.852C412.836 352.171 401.461 370.822 383.112 388.324L383.104 388.331C365.661 404.924 344.919 416.135 320.89 421.789L320.856 421.797L320.821 421.805C304.252 425.551 277.133 425.259 260.096 421.107L260.073 421.102L260.05 421.096C212.378 409.178 175.008 372.163 162.001 323.688C159.695 315.227 159.191 307.877 159.324 290.37C159.324 280.466 159.417 274.269 159.971 269.17C160.551 263.83 161.621 259.837 163.261 254.37L163.269 254.343L163.277 254.317C184.611 184.945 253.348 144.676 322.915 161.287C369.358 172.366 406.176 207.569 420.311 254.075Z" fill="white" stroke="#0B3B2D" stroke-width="16"/>
<ellipse cx="285.5" cy="303.5" rx="248.5" ry="215.5" fill="white"/>
<path d="M284.15 77.8366V77.2634L283.582 77.3412C257.013 80.9834 231.809 101.759 212.29 136.325C206.626 146.356 201.516 157.435 197.065 169.394L196.736 170.278L197.653 170.054C224.102 163.579 253.161 159.761 283.66 159.171L284.15 159.162V158.671V77.8366ZM178.159 175.45L178.406 175.373L178.486 175.127C184.002 158.266 190.747 142.759 198.529 128.978L198.146 128.762L198.529 128.978C208.164 111.916 219.59 97.196 232.451 85.898L231.985 85.0413C161.614 104.948 106.139 158.977 85.6972 227.534L86.5433 228.017C98.1421 215.489 113.256 204.359 130.775 194.974C144.924 187.393 160.847 180.821 178.159 175.45ZM172.946 194.112L173.181 193.203L172.296 193.516C160.02 197.851 148.647 202.827 138.35 208.344C102.87 227.35 81.5323 251.9 77.7907 277.796L77.7082 278.367H78.2856H161.276H161.766L161.776 277.877C162.382 248.173 166.301 219.872 172.946 194.112ZM177.479 277.856L177.468 278.367H177.979H214.039H214.131L214.216 278.334C246.17 266.183 271.63 241.388 284.114 210.258L284.15 210.169V210.072V174.939V174.429L283.64 174.439C250.28 175.112 218.952 179.79 191.267 187.533L191 187.608L190.922 187.874C182.972 214.841 178.169 245.358 177.479 277.856ZM161.776 294.123L161.766 293.633H161.276H78.2856H77.7082L77.7907 294.204C81.5323 320.1 102.87 344.649 138.35 363.656C148.647 369.173 160.02 374.148 172.296 378.484L173.181 378.797L172.946 377.888C166.301 352.128 162.382 323.827 161.776 294.123ZM190.922 384.127L191 384.393L191.267 384.468C218.952 392.209 250.28 396.889 283.64 397.562L284.15 397.572V397.062V361.929V361.832L284.114 361.743C271.632 330.612 246.17 305.817 214.216 293.666L214.131 293.633H214.039H177.979H177.468L177.479 294.144C178.169 326.642 182.972 357.159 190.922 384.127ZM178.486 396.874L178.406 396.628L178.159 396.551C160.847 391.179 144.924 384.607 130.775 377.027C113.256 367.642 98.1421 356.51 86.5432 343.983L85.6972 344.466C106.139 413.022 161.614 467.052 231.985 486.958L232.451 486.101C219.59 474.803 208.164 460.084 198.529 443.02L198.165 443.226L198.529 443.02C190.747 429.241 184.002 413.735 178.486 396.874ZM283.582 494.658L284.15 494.736V494.163V413.329V412.839L283.66 412.829C253.161 412.238 224.102 408.421 197.653 401.946L196.736 401.722L197.065 402.606C201.516 414.565 206.626 425.645 212.29 435.675C231.809 470.24 257.013 491.017 283.582 494.658ZM351.549 486.101L352.015 486.958C422.387 467.052 477.862 413.022 498.303 344.466L497.457 343.983C485.859 356.51 470.744 367.642 453.226 377.027C439.076 384.607 423.155 391.179 405.842 396.551L405.595 396.628L405.515 396.874C399.999 413.735 393.253 429.241 385.472 443.02C375.838 460.084 364.41 474.803 351.549 486.101ZM386.936 402.606L387.265 401.722L386.348 401.946C359.899 408.421 330.84 412.238 300.34 412.829L299.85 412.839V413.329V494.163V494.736L300.418 494.658C326.989 491.017 352.194 470.24 371.71 435.675C377.374 425.645 382.483 414.565 386.936 402.606ZM411.054 377.888L410.819 378.797L411.704 378.484C423.979 374.148 435.354 369.173 445.651 363.656C481.13 344.649 502.468 320.1 506.209 294.204L506.292 293.633H505.714H422.725H422.235L422.225 294.123C421.618 323.827 417.7 352.128 411.054 377.888ZM406.523 294.144L406.534 293.633H406.023H369.971H369.88L369.794 293.666C337.831 305.821 312.365 330.626 299.886 361.769L299.85 361.859V361.955V397.062V397.572L300.36 397.562C333.722 396.889 365.049 392.209 392.734 384.468L393.001 384.393L393.079 384.127C401.027 357.159 405.834 326.642 406.523 294.144ZM422.225 277.877L422.235 278.367H422.725H505.714H506.292L506.209 277.796C502.468 251.9 481.13 227.35 445.651 208.344C435.354 202.827 423.979 197.851 411.704 193.516L410.819 193.203L411.054 194.112C417.7 219.872 421.618 248.173 422.225 277.877ZM393.079 187.874L393.001 187.608L392.734 187.533C365.049 179.79 333.722 175.112 300.36 174.439L299.85 174.429V174.939V210.046V210.142L299.886 210.232C312.365 241.374 337.831 266.179 369.794 278.334L369.88 278.367H369.971H406.023H406.534L406.523 277.856C405.834 245.358 401.027 214.841 393.079 187.874ZM405.515 175.127L405.595 175.373L405.842 175.45C423.155 180.821 439.076 187.393 453.226 194.974C470.744 204.359 485.859 215.489 497.457 228.017L498.303 227.534C477.862 158.977 422.387 104.948 352.015 85.0413L351.549 85.898C364.41 97.196 375.838 111.916 385.472 128.978C393.253 142.759 399.999 158.266 405.515 175.127ZM300.418 77.3412L299.85 77.2634V77.8366V158.671V159.162L300.34 159.171C330.84 159.761 359.899 163.579 386.348 170.054L387.265 170.278L386.936 169.394C382.483 157.435 377.374 146.356 371.71 136.325C352.194 101.759 326.989 80.9834 300.418 77.3412ZM292 61.5C419.315 61.5 522.5 162.024 522.5 286C522.5 409.976 419.315 510.5 292 510.5C164.686 510.5 61.5 409.976 61.5 286C61.5 162.024 164.686 61.5 292 61.5Z" fill="#0B3B2D" stroke="white"/>
</svg>
