<svg width="584" height="867" viewBox="0 0 584 867" fill="none" xmlns="http://www.w3.org/2000/svg">
<path d="M262.524 0.66833C210.791 5.60166 158.124 26.6683 113.857 60.135C99.3239 71.2017 77.7239 92.4017 65.3239 107.735C29.3239 152.535 9.05724 200.535 1.85724 258.402C-4.2761 308.402 4.79057 360.668 28.9239 413.868C43.5906 446.402 53.1906 461.735 130.657 575.735C203.591 683.068 238.657 752.135 258.391 827.868C261.191 838.535 264.391 848.935 265.591 851.202C276.124 871.468 307.591 871.468 318.124 851.202C319.324 848.935 322.524 838.535 325.324 827.868C345.057 752.135 380.124 683.068 453.057 575.735C530.524 461.735 540.124 446.402 554.791 413.868C578.924 360.668 587.991 308.402 581.857 258.402C573.191 188.802 543.991 129.868 494.391 81.735C448.124 36.935 386.391 7.60166 324.924 1.06833C313.457 -0.13167 273.324 -0.398337 262.524 0.66833ZM321.057 169.068C364.657 179.468 399.324 212.535 412.657 256.402C415.991 267.468 416.391 270.268 416.391 291.068C416.391 312.002 416.124 314.668 412.791 325.468C405.591 348.535 394.924 366.002 377.591 382.535C361.191 398.135 341.724 408.668 319.057 414.002C303.724 417.468 277.857 417.202 261.991 413.335C217.191 402.135 181.991 367.335 169.724 321.602C167.724 314.268 167.191 307.868 167.324 290.402C167.324 270.402 167.724 267.335 170.924 256.668C191.057 191.202 255.724 153.468 321.057 169.068Z" fill="#0B3B2D"/>
</svg>
