<svg width="55" height="55" viewBox="0 0 55 55" fill="none" xmlns="http://www.w3.org/2000/svg">
<rect x="0.5" y="0.5" width="54" height="54" rx="14.5" fill="white"/>
<rect x="0.5" y="0.5" width="54" height="54" rx="14.5" stroke="#0B3B2D"/>
<path d="M31.8558 27.1759L26.0541 21.5499C25.6921 21.1989 25 21.4117 25 21.874L25 33.126C25 33.5883 25.6921 33.8011 26.0541 33.4501L31.8558 27.8241C32.0481 27.6376 32.0481 27.3624 31.8558 27.1759Z" fill="#0B3B2D"/>
  <g transform="translate(55, 0) scale(-1, 1)">
    <rect x="0.5" y="0.5" width="54" height="54" rx="14.5" fill="white"/>
    <rect x="0.5" y="0.5" width="54" height="54" rx="14.5" stroke="#0B3B2D"/>
    <path d="M31.8558 27.1759L26.0541 21.5499C25.6921 21.1989 25 21.4117 25 21.874L25 33.126C25 33.5883 25.6921 33.8011 26.0541 33.4501L31.8558 27.8241C32.0481 27.6376 32.0481 27.3624 31.8558 27.1759Z" fill="#0B3B2D"/>
  </g>
</svg>
