<svg width="20" height="20" viewBox="0 0 20 20" fill="none" xmlns="http://www.w3.org/2000/svg">
<g id="20 / General / Add">
<path id="Vector" d="M10.8335 4.16634C10.8335 3.7061 10.4604 3.33301 10.0002 3.33301C9.53993 3.33301 9.16683 3.7061 9.16683 4.16634V9.16634H4.16683C3.70659 9.16634 3.3335 9.53944 3.3335 9.99967C3.3335 10.4599 3.70659 10.833 4.16683 10.833H9.16683V15.833C9.16683 16.2932 9.53993 16.6663 10.0002 16.6663C10.4604 16.6663 10.8335 16.2932 10.8335 15.833V10.833H15.8335C16.2937 10.833 16.6668 10.4599 16.6668 9.99967C16.6668 9.53944 16.2937 9.16634 15.8335 9.16634H10.8335V4.16634Z" fill="#4B4B4B"/>
</g>
</svg>
