<svg width="16" height="16" viewBox="0 0 16 16" fill="none" xmlns="http://www.w3.org/2000/svg">
<g id="Star">
<path id="Vector" d="M12.3127 15.0005C12.2074 15.0009 12.1047 14.9681 12.0192 14.9067L8.00015 11.993L3.98109 14.9067C3.89522 14.969 3.79178 15.0024 3.68571 15.002C3.57964 15.0016 3.47643 14.9675 3.39103 14.9046C3.30562 14.8417 3.24242 14.7532 3.21058 14.6521C3.17874 14.5509 3.1799 14.4422 3.2139 14.3417L4.7814 9.69891L0.718901 6.91298C0.630904 6.8527 0.56449 6.76586 0.529361 6.66515C0.494232 6.56444 0.492229 6.45513 0.523646 6.3532C0.555063 6.25127 0.618253 6.16206 0.703982 6.0986C0.789712 6.03514 0.893489 6.00076 1.00015 6.00048H6.01203L7.52453 1.34579C7.55711 1.2453 7.62068 1.15771 7.70613 1.09558C7.79158 1.03346 7.89451 1 8.00015 1C8.10579 1 8.20872 1.03346 8.29417 1.09558C8.37962 1.15771 8.44319 1.2453 8.47578 1.34579L9.98828 6.00204H15.0002C15.1069 6.00199 15.211 6.03613 15.2969 6.09947C15.3829 6.16281 15.4464 6.25201 15.478 6.35402C15.5096 6.45603 15.5077 6.56548 15.4726 6.66634C15.4375 6.76721 15.3711 6.85419 15.283 6.91454L11.2189 9.69891L12.7855 14.3405C12.8108 14.4156 12.818 14.4957 12.8063 14.5742C12.7946 14.6526 12.7644 14.7272 12.7182 14.7917C12.672 14.8561 12.6112 14.9087 12.5406 14.945C12.4701 14.9813 12.392 15.0003 12.3127 15.0005Z" fill="#FFC23D"/>
</g>
</svg>
