<svg width="24" height="24" viewBox="0 0 24 24" fill="none" xmlns="http://www.w3.org/2000/svg">
<path d="M15.7736 12.972L14.6506 11.8489C14.8211 10.9592 14.5871 10.2002 13.9486 9.57199C13.3102 8.94379 12.5441 8.70276 11.6506 8.84891L10.5275 7.72586C10.7596 7.61816 10.9983 7.5406 11.2438 7.49316C11.4894 7.44573 11.7416 7.42201 12.0006 7.42201C13.1352 7.42201 14.0983 7.81785 14.89 8.60951C15.6816 9.40118 16.0775 10.3643 16.0775 11.4989C16.0775 11.7579 16.0553 12.0101 16.0111 12.2556C15.9669 12.5011 15.8877 12.7399 15.7736 12.972ZM18.9544 16.0835L17.8506 15.0489C18.4839 14.5656 19.0506 14.0281 19.5506 13.4364C20.0506 12.8447 20.4672 12.1989 20.8006 11.4989C19.9672 9.81558 18.7631 8.47808 17.1881 7.48641C15.6131 6.49475 13.8839 5.99891 12.0006 5.99891C11.5172 5.99891 11.0464 6.03225 10.5881 6.09891C10.1297 6.16558 9.66723 6.26558 9.20056 6.39891L8.03521 5.23356C8.6711 4.98228 9.31949 4.79702 9.98039 4.67779C10.6413 4.55856 11.3147 4.49894 12.0006 4.49894C14.1493 4.49894 16.123 5.05727 17.9217 6.17394C19.7204 7.2906 21.1037 8.8015 22.0717 10.7066C22.1384 10.8335 22.1867 10.9614 22.2169 11.0903C22.247 11.2191 22.2621 11.3553 22.2621 11.4989C22.2621 11.6425 22.2496 11.7787 22.2246 11.9076C22.1996 12.0364 22.1537 12.1643 22.0871 12.2912C21.7332 13.0438 21.289 13.7386 20.7544 14.3758C20.2198 15.013 19.6198 15.5822 18.9544 16.0835ZM12.0006 18.4989C9.89545 18.4989 7.96597 17.9364 6.21214 16.8114C4.45829 15.6864 3.06405 14.2047 2.02944 12.3662C1.9461 12.2393 1.88521 12.1015 1.84676 11.9528C1.8083 11.804 1.78906 11.6528 1.78906 11.4989C1.78906 11.3451 1.80573 11.1963 1.83906 11.0528C1.8724 10.9092 1.93073 10.7688 2.01406 10.6316C2.38586 9.95213 2.80702 9.30501 3.27754 8.69026C3.74805 8.07551 4.28908 7.52456 4.90061 7.03739L2.64291 4.76429C2.50445 4.61557 2.43618 4.43897 2.43811 4.23449C2.44003 4.03 2.51342 3.85533 2.65829 3.71046C2.80315 3.5656 2.9788 3.49316 3.18521 3.49316C3.39161 3.49316 3.56725 3.5656 3.71211 3.71046L20.289 20.2874C20.4275 20.4258 20.5009 20.5973 20.5092 20.8018C20.5175 21.0062 20.4441 21.1861 20.289 21.3412C20.1441 21.4861 19.9685 21.5585 19.7621 21.5585C19.5557 21.5585 19.3801 21.4861 19.2352 21.3412L15.716 17.8527C15.1262 18.0809 14.5201 18.2457 13.8977 18.347C13.2753 18.4482 12.6429 18.4989 12.0006 18.4989ZM5.95444 8.09119C5.36854 8.54375 4.84193 9.05562 4.37461 9.62679C3.9073 10.1979 3.51595 10.822 3.20056 11.4989C4.0339 13.1822 5.23806 14.5197 6.81306 15.5114C8.38806 16.5031 10.1172 16.9989 12.0006 16.9989C12.4301 16.9989 12.8528 16.9701 13.2689 16.9124C13.6849 16.8547 14.098 16.7656 14.5083 16.6451L13.2429 15.3489C13.0403 15.4373 12.8381 15.4973 12.6361 15.5287C12.4342 15.5601 12.2224 15.5758 12.0006 15.5758C10.866 15.5758 9.90283 15.18 9.11116 14.3883C8.3195 13.5966 7.92366 12.6335 7.92366 11.4989C7.92366 11.2771 7.94097 11.0653 7.97559 10.8633C8.0102 10.6614 8.06854 10.4592 8.15059 10.2566L5.95444 8.09119Z" fill="#9FA6B2"/>
</svg>
