<svg xmlns="http://www.w3.org/2000/svg" width="21" height="20" viewBox="0 0 21 20" fill="none">
  <path d="M9.55354 7.51898C7.99273 7.51898 6.719 8.79271 6.719 10.3535C6.719 11.9143 7.99273 13.1881 9.55354 13.1881C11.1143 13.1881 12.3881 11.9143 12.3881 10.3535C12.3881 8.79271 11.1143 7.51898 9.55354 7.51898ZM18.055 10.3535C18.055 9.17972 18.0657 8.01656 17.9997 6.84489C17.9338 5.48398 17.6234 4.27616 16.6282 3.28099C15.6309 2.28369 14.4252 1.97535 13.0643 1.90944C11.8905 1.84352 10.7273 1.85415 9.55566 1.85415C8.38187 1.85415 7.21871 1.84352 6.04704 1.90944C4.68612 1.97535 3.47831 2.28581 2.48314 3.28099C1.48584 4.27829 1.1775 5.48398 1.11158 6.84489C1.04566 8.01869 1.0563 9.18185 1.0563 10.3535C1.0563 11.5252 1.04566 12.6905 1.11158 13.8621C1.1775 15.2231 1.48796 16.4309 2.48314 17.426C3.48043 18.4233 4.68612 18.7317 6.04704 18.7976C7.22084 18.8635 8.384 18.8529 9.55566 18.8529C10.7295 18.8529 11.8926 18.8635 13.0643 18.7976C14.4252 18.7317 15.633 18.4212 16.6282 17.426C17.6255 16.4287 17.9338 15.2231 17.9997 13.8621C18.0678 12.6905 18.055 11.5273 18.055 10.3535ZM9.55354 14.7148C7.14003 14.7148 5.19222 12.767 5.19222 10.3535C5.19222 7.94001 7.14003 5.99219 9.55354 5.99219C11.967 5.99219 13.9149 7.94001 13.9149 10.3535C13.9149 12.767 11.967 14.7148 9.55354 14.7148ZM14.0935 6.83214C13.53 6.83214 13.0749 6.37708 13.0749 5.81357C13.0749 5.25007 13.53 4.79501 14.0935 4.79501C14.657 4.79501 15.112 5.25007 15.112 5.81357C15.1122 5.94738 15.086 6.07991 15.0349 6.20356C14.9837 6.32721 14.9087 6.43956 14.8141 6.53418C14.7195 6.6288 14.6071 6.70382 14.4835 6.75494C14.3598 6.80607 14.2273 6.8323 14.0935 6.83214Z" fill="white"/>
</svg>