<svg xmlns="http://www.w3.org/2000/svg" width="21" height="20" viewBox="0 0 21 20" fill="none">
  <g clip-path="url(#clip0_1_7513)">
    <path d="M19.7586 4.11366C19.0627 4.42199 18.3152 4.63033 17.5294 4.72449C18.3402 4.23932 18.9469 3.47572 19.2361 2.57616C18.4743 3.02865 17.6405 3.34716 16.7711 3.51783C16.1864 2.89355 15.412 2.47977 14.568 2.34072C13.7241 2.20168 12.8578 2.34515 12.1038 2.74887C11.3497 3.15259 10.7501 3.79396 10.3979 4.57341C10.0457 5.35287 9.96069 6.22679 10.1561 7.05949C8.61249 6.98199 7.10244 6.58079 5.72393 5.88192C4.34543 5.18305 3.12928 4.20213 2.15441 3.00283C1.82108 3.57783 1.62941 4.24449 1.62941 4.95449C1.62904 5.59366 1.78644 6.22303 2.08765 6.78677C2.38885 7.35051 2.82455 7.83119 3.35608 8.18616C2.73964 8.16655 2.13681 7.99998 1.59775 7.70033V7.75033C1.59769 8.64678 1.90777 9.51564 2.4754 10.2095C3.04303 10.9033 3.83322 11.3794 4.71191 11.557C4.14007 11.7118 3.54053 11.7346 2.95858 11.6237C3.2065 12.395 3.68941 13.0695 4.33972 13.5528C4.99003 14.036 5.77518 14.3038 6.58525 14.3187C5.21011 15.3982 3.51182 15.9837 1.76358 15.9812C1.4539 15.9812 1.14448 15.9632 0.836914 15.927C2.61148 17.068 4.6772 17.6735 6.78691 17.6712C13.9286 17.6712 17.8327 11.7562 17.8327 6.62616C17.8327 6.45949 17.8286 6.29116 17.8211 6.12449C18.5805 5.57531 19.236 4.89524 19.7569 4.11616L19.7586 4.11366Z" fill="white"/>
  </g>
  <defs>
    <clipPath id="clip0_1_7513">
      <rect width="20" height="20" fill="white" transform="translate(0.0556641)"/>
    </clipPath>
  </defs>
</svg>