<svg xmlns="http://www.w3.org/2000/svg" width="21" height="20" viewBox="0 0 21 20" fill="none">
  <g clip-path="url(#clip0_1_7515)">
    <path d="M19.6385 5.42142C19.5253 5.01745 19.3047 4.65171 19.0002 4.36309C18.6871 4.06559 18.3034 3.85279 17.8852 3.74476C16.3202 3.33226 10.0502 3.33226 10.0502 3.33226C7.43631 3.30252 4.82306 3.43332 2.2252 3.72392C1.80703 3.83993 1.424 4.0575 1.1102 4.35726C0.801868 4.65392 0.578535 5.01976 0.461868 5.42059C0.181613 6.93038 0.0454452 8.46338 0.0552018 9.99892C0.0452018 11.5331 0.181035 13.0656 0.461868 14.5773C0.576035 14.9764 0.798535 15.3406 1.1077 15.6348C1.41687 15.9289 1.80187 16.1414 2.2252 16.2539C3.81104 16.6656 10.0502 16.6656 10.0502 16.6656C12.6674 16.6954 15.284 16.5646 17.8852 16.2739C18.3034 16.1659 18.6871 15.9531 19.0002 15.6556C19.3046 15.367 19.5249 15.0012 19.6377 14.5973C19.9253 13.0881 20.0651 11.5544 20.0552 10.0181C20.0768 8.47526 19.9372 6.93439 19.6385 5.42059V5.42142ZM8.05687 12.8523V7.14642L13.2735 9.99976L8.05687 12.8523Z" fill="white"/>
  </g>
  <defs>
    <clipPath id="clip0_1_7515">
      <rect width="20" height="20" fill="white" transform="translate(0.0556641)"/>
    </clipPath>
  </defs>
</svg>